<?xml version="1.0" standalone="no"?>
<!DOCTYPE svg PUBLIC "-//W3C//DTD SVG 1.1//EN" "http://www.w3.org/Graphics/SVG/1.1/DTD/svg11.dtd" >
<svg xmlns="http://www.w3.org/2000/svg">
<metadata></metadata>
<defs>
<font id="sybilla-ultrauploaded_file" horiz-adv-x="1394" >
<font-face units-per-em="2048" ascent="1559" descent="-489" />
<missing-glyph horiz-adv-x="532" />
<glyph horiz-adv-x="0" />
<glyph unicode="&#xd;" horiz-adv-x="532" />
<glyph unicode=" "  horiz-adv-x="532" />
<glyph unicode="&#x09;" horiz-adv-x="532" />
<glyph unicode="&#xa0;" horiz-adv-x="532" />
<glyph unicode="!" horiz-adv-x="745" d="M102 901l58 561h475l-105 -942h-358zM139 164q0 84 56 142q55 56 147 56t147 -56q56 -58 56 -142q0 -85 -56 -141t-147 -56t-147 56t-56 141z" />
<glyph unicode="&#x22;" horiz-adv-x="870" d="M70 1350q0 29 8 53q10 31 32 53q21 21 51 30t60 9q70 0 111 -41q30 -34 30 -96q0 -11 -2 -35l-43 -401h-204l-41 401q-2 20 -2 27zM508 1350q0 29 8 53q10 31 32 53q21 21 51 30t60 9q70 0 111 -41q31 -36 31 -96q0 -11 -2 -35l-43 -401h-205l-41 401q-2 20 -2 27z" />
<glyph unicode="#" horiz-adv-x="1185" d="M63 283v256h158l27 155h-113v256h150l24 172h287l-27 -172h150l26 172h285l-24 -172h116v-256h-153l-25 -155h111v-256h-148l-22 -164h-285l23 164h-154l-23 -164h-284l22 164h-121zM506 539h153l25 155h-154z" />
<glyph unicode="$" horiz-adv-x="1333" d="M86 956q0 78 32 140q31 60 87 107t128 77q75 31 154 47v250h328v-246q83 -11 164 -37q80 -26 190 -80v-280h-348v117h-164q-37 0 -60 -7q-19 -6 -19 -28q0 -27 26 -49q29 -24 70 -44q54 -26 99 -45q41 -17 116 -51q70 -31 134 -66q70 -38 120 -84q52 -47 87 -110 q34 -61 34 -141q0 -78 -33 -141q-34 -66 -90 -111q-58 -48 -135 -80q-76 -32 -170 -49v-248h-328v242q-106 17 -204 46q-104 30 -206 89v313h348v-163h205q57 0 89 9t32 38q0 26 -28 48q-30 23 -72 43q-49 23 -104 44q-53 20 -119 51q-68 30 -133 68q-63 37 -115 84t-83 108 q-32 62 -32 139z" />
<glyph unicode="%" horiz-adv-x="1968" d="M78 1047q0 93 28 161q29 69 79 115q50 45 118 68q66 22 146 22q81 0 148 -22q68 -22 118 -69t78 -115t28 -160q0 -93 -28 -164q-29 -72 -78 -120q-51 -49 -118 -74q-68 -25 -148 -25q-79 0 -146 24t-118 73q-51 50 -79 120q-28 71 -28 166zM391 1040q0 -65 12 -113 t48 -48q18 0 29 14q13 16 17 37q6 29 7 52q2 40 2 58q0 22 -2 60q-1 22 -7 51q-4 22 -17 36q-12 13 -29 13q-36 0 -48 -47t-12 -113zM410 0l944 1516l213 -136l-944 -1517zM1147 350q0 91 29 161q28 69 78 114q48 44 119 67t147 23q78 0 147 -23t117 -68q50 -47 78 -115 t28 -161q0 -94 -28 -163q-27 -67 -79 -119q-50 -50 -118 -74q-70 -25 -145 -25t-147 25q-68 24 -119 73q-50 49 -78 119q-29 73 -29 166zM1460 344q0 -61 13 -115q12 -49 47 -49q17 0 29 15q13 16 17 37q6 31 7 53q2 38 2 59q0 22 -2 58q-1 22 -7 51q-4 20 -17 35 q-12 14 -29 14q-35 0 -47 -46q-13 -50 -13 -112z" />
<glyph unicode="&#x26;" horiz-adv-x="1583" d="M111 444q0 140 58 238t138 145v13q-20 16 -45 46q-21 25 -43 63q-21 36 -33 80q-12 43 -12 97q0 77 32 146q32 68 99 117q65 48 174 77q108 29 256 29q67 0 139 -6q68 -6 143 -20q84 -16 137 -33q75 -24 124 -47v-332h-356v133h-273q-59 0 -82 -18q-22 -18 -22 -52 q0 -38 19 -67q18 -28 61 -74l297 -299v219h551v-278h-144q0 -64 -12 -154q-12 -87 -62 -188l218 -220l-218 -221l-188 191q-58 -32 -145 -46q-96 -16 -191 -16q-161 0 -276 37q-119 38 -194 100q-76 62 -114 151q-36 84 -36 189zM492 467q0 -89 66 -139q65 -49 190 -49h112 l-309 319q-59 -43 -59 -131z" />
<glyph unicode="'" horiz-adv-x="432" d="M70 1350q0 29 8 53q10 31 32 53q21 21 51 30t60 9q70 0 111 -41q30 -34 30 -96q0 -11 -2 -35l-43 -401h-204l-41 401q-2 20 -2 27z" />
<glyph unicode="(" horiz-adv-x="772" d="M119 504q0 214 44 379q44 164 103 280q61 120 121 191q61 74 96 108l252 -166q-34 -53 -68 -118q-41 -79 -70 -170q-31 -99 -54 -225q-23 -129 -23 -281q0 -151 23 -280q22 -124 54 -224q30 -94 70 -171q38 -73 68 -118l-252 -168q-35 37 -96 111q-60 72 -121 192 q-59 116 -103 282q-44 165 -44 378z" />
<glyph unicode=")" horiz-adv-x="772" d="M37 -291q25 38 67 118q36 69 70 171q33 100 54 224q22 132 22 280q0 149 -22 281q-21 126 -54 225t-70 170q-38 73 -67 118l252 166q35 -34 96 -108q60 -71 121 -191q59 -116 103 -280q44 -165 44 -379q0 -213 -44 -378q-44 -166 -103 -282q-61 -120 -121 -192 q-61 -74 -96 -111z" />
<glyph unicode="*" horiz-adv-x="954" d="M70 1051l96 286l190 -106l21 16l-47 215h299l-41 -215l20 -14l191 110l86 -290l-209 -25l-10 -24l165 -144l-249 -172l-90 191h-25l-86 -203l-242 182l158 146l-10 24z" />
<glyph unicode="+" horiz-adv-x="1226" d="M78 369v315h377v363h317v-363h377v-315h-377v-369h-317v369h-377z" />
<glyph unicode="," horiz-adv-x="628" d="M102 -270q115 83 115 198q0 49 -16 75q-17 27 -33 48q-34 43 -46 77q-11 32 -11 65q0 82 58 125q59 44 136 44q54 0 93 -20q42 -22 67 -54q27 -34 40 -80q13 -45 13 -97q0 -88 -34 -163q-35 -78 -85 -138q-51 -62 -111 -108q-60 -47 -112 -71z" />
<glyph unicode="-" horiz-adv-x="856" d="M102 414v311h652v-311h-652z" />
<glyph unicode="." horiz-adv-x="618" d="M102 164q0 84 56 142q55 56 147 56q93 0 148 -56t55 -142t-55 -141q-56 -56 -148 -56q-91 0 -147 56t-56 141z" />
<glyph unicode="/" horiz-adv-x="960" d="M53 -133l563 1591l291 -92l-563 -1591z" />
<glyph unicode="0" horiz-adv-x="1472" d="M70 694q0 174 49 306q51 137 137 226q88 91 211 139t270 48q148 0 271 -48q124 -48 210 -139q86 -90 136 -226q49 -132 49 -306q0 -172 -48 -306t-136 -228q-89 -95 -211 -144t-271 -49q-150 0 -272 49t-211 144q-88 94 -136 228t-48 306zM578 686q0 -89 7 -160 q8 -78 25 -133t49 -90q30 -33 78 -33q46 0 76 34q32 37 49 91q19 59 26 132q7 70 7 157q0 85 -8 168q-7 70 -27 134q-17 54 -49 89q-30 33 -76 33q-45 0 -75 -34q-30 -35 -48 -91q-19 -59 -26 -134q-8 -82 -8 -163z" />
<glyph unicode="1" horiz-adv-x="1148" d="M45 1024l442 356h422v-1073h195v-307h-893v307h215v559l-152 -112z" />
<glyph unicode="2" horiz-adv-x="1261" d="M70 0v305q92 55 211 144q106 79 191 167t138 182q54 96 54 183q0 51 -27 89t-109 38h-61v-195h-387v414q127 44 270 65q146 21 275 21q119 0 217 -19t174 -67q73 -46 114 -125t41 -192q0 -203 -122 -368q-124 -168 -383 -325l6 -16l254 47h274v-348h-1130z" />
<glyph unicode="3" horiz-adv-x="1212" d="M45 51v332q38 -12 150 -44q58 -16 112 -28q40 -8 88 -14q35 -4 74 -4q79 0 125 25q47 26 47 102t-47 103q-48 28 -131 28h-113v285h113q85 0 131 42q47 42 47 101q0 57 -46 93q-47 36 -132 36h-31v-154h-387v373q128 38 243 61q124 25 273 25q109 0 205 -16 q98 -16 173 -57q77 -42 119 -105q44 -67 44 -162q0 -93 -43 -173t-129 -130v-20q41 -11 80 -36q36 -24 68 -68q28 -40 47 -97q18 -55 18 -125q0 -114 -47 -200q-46 -85 -132 -142q-86 -58 -200 -86q-116 -29 -250 -29q-94 0 -218 18q-129 19 -251 66z" />
<glyph unicode="4" horiz-adv-x="1419" d="M70 207v287q50 74 93 190q44 118 78 244q32 120 53 248q19 118 19 204h475q0 -110 -22 -232q-22 -123 -57 -244q-32 -113 -77 -221q-41 -99 -83 -163l6 -16l199 37l34 329h386v-329h184v-334h-184v-207h-465v207h-639z" />
<glyph unicode="5" horiz-adv-x="1216" d="M61 53v334q141 -48 261 -70q109 -20 174 -20q87 0 131 35q43 34 43 94q0 84 -77 120t-194 36h-323l41 798h927v-344h-479l-6 -125h49q134 0 229 -33q101 -35 169 -96q69 -62 105 -148q36 -87 36 -194q0 -227 -161 -350q-160 -123 -445 -123q-95 0 -223 18 q-132 19 -257 68z" />
<glyph unicode="6" horiz-adv-x="1341" d="M70 627q0 129 32 263q33 137 116 255q81 115 225 192q142 76 362 76q65 0 131 -9q63 -9 158 -32v-336q-46 16 -104 27q-54 10 -122 10q-55 0 -105 -10q-53 -11 -96 -36q-45 -27 -79 -72q-34 -46 -49 -119l16 -7q61 47 132 65q68 17 144 17q110 0 191 -32q83 -33 141 -92 q57 -59 87 -139q30 -81 30 -177q0 -136 -55 -230q-56 -96 -144 -157q-90 -63 -195 -89q-112 -28 -214 -28q-142 0 -253 45q-112 45 -190 131q-77 84 -118 208q-41 123 -41 276zM555 522q0 -123 46 -179t112 -56q65 0 91 45q25 44 25 98q0 84 -45 116q-46 32 -96 32 q-38 0 -75 -16q-32 -14 -58 -40z" />
<glyph unicode="7" horiz-adv-x="1308" d="M37 911v469h1218v-286q-105 -105 -174 -231q-70 -127 -111 -266q-42 -141 -60 -291q-17 -142 -17 -306h-475q0 176 28 337q28 162 75 301q48 141 106 245q59 105 123 166l-7 16l-161 -16h-158v-138h-387z" />
<glyph unicode="8" d="M70 410q0 108 51 185q52 78 123 124v20q-60 62 -91 131q-30 67 -30 152q0 111 50 188q49 76 129 121q82 47 175 64q96 18 191 18q117 0 219 -24q99 -23 179 -72q78 -47 121 -116q44 -70 44 -154q0 -88 -40 -159q-42 -75 -93 -120v-20q36 -23 89 -63q44 -33 73 -72 q30 -41 48 -90q17 -47 17 -120q0 -107 -43 -187t-123 -136q-79 -56 -192 -84q-114 -29 -254 -29q-161 0 -283 36t-201 96q-77 58 -119 141q-40 79 -40 170zM553 428q0 -57 41 -104q42 -48 129 -48q65 0 93 28t28 69q0 61 -59 115q-59 55 -169 83q-34 -37 -49 -74 q-14 -35 -14 -69zM584 1051q0 -52 47 -102q46 -49 137 -66q21 18 36 52q15 35 15 71q0 55 -35 88q-33 32 -98 32q-45 0 -73 -17q-29 -17 -29 -58z" />
<glyph unicode="9" horiz-adv-x="1341" d="M61 909q0 134 54 231q52 93 139 156q87 62 192 89q110 28 213 28q141 0 254 -45t193 -131q79 -85 123 -209q43 -122 43 -276q0 -79 -14 -172q-14 -96 -47 -178q-34 -85 -88 -165q-54 -79 -136 -139q-80 -58 -193 -95q-111 -36 -257 -36q-65 0 -131 9q-63 9 -158 32v336 q47 -17 103 -27q54 -10 122 -10q54 0 107 10q56 11 102 36q47 26 80 72q34 47 41 120l-17 6q-61 -47 -132 -65q-68 -17 -144 -17q-107 0 -191 33q-85 33 -141 91q-57 59 -87 139q-30 81 -30 177zM512 950q0 -84 45 -115q46 -32 96 -32q41 0 75 15q32 14 58 40q0 123 -46 179 q-46 57 -111 57t-91 -45q-26 -46 -26 -99z" />
<glyph unicode=":" horiz-adv-x="626" d="M111 164q0 86 55 142t147 56q93 0 148 -56t55 -142t-55 -141q-56 -56 -148 -56q-91 0 -147 56q-55 55 -55 141zM111 838q0 86 55 142t147 56q93 0 148 -56t55 -142q0 -87 -55 -142t-148 -55q-92 0 -147 55t-55 142z" />
<glyph unicode=";" horiz-adv-x="632" d="M102 838q0 84 56 142q55 56 147 56q93 0 148 -56t55 -142q0 -87 -55 -142t-148 -55q-92 0 -147 55q-56 56 -56 142zM106 -270q115 83 115 198q0 49 -16 75q-17 27 -33 48q-34 43 -46 77q-11 32 -11 65q0 82 58 125q59 44 136 44q54 0 93 -20q42 -22 67 -54q27 -34 40 -80 q13 -45 13 -97q0 -88 -34 -163q-35 -78 -85 -138q-51 -62 -111 -108q-60 -47 -112 -71z" />
<glyph unicode="&#x3c;" horiz-adv-x="1226" d="M78 322v360l938 322l133 -287l-641 -197v-18l641 -195l-133 -307z" />
<glyph unicode="=" horiz-adv-x="1226" d="M78 102v316h1071v-316h-1071zM78 633v315h1071v-315h-1071z" />
<glyph unicode="&#x3e;" horiz-adv-x="1226" d="M78 307l641 195v18l-641 197l131 287l940 -322v-360l-940 -322z" />
<glyph unicode="?" horiz-adv-x="1200" d="M61 1036v344q91 46 233 81q139 34 306 34q108 0 200 -16q93 -16 169 -58q74 -41 117 -109q45 -71 45 -171q0 -60 -17 -113t-43 -92q-30 -45 -62 -77q-38 -38 -73 -66q-52 -44 -77 -64q-38 -30 -68 -62q-35 -37 -53 -69q-21 -38 -27 -82h-349v51q0 113 47 187 q47 75 109 135l43 43q23 22 42 48t33 54q13 27 13 62q0 54 -37 82t-114 28h-49v-170h-388zM330 164q0 86 55 142t147 56q93 0 148 -56t55 -142t-55 -141q-56 -56 -148 -56q-91 0 -147 56q-55 55 -55 141z" />
<glyph unicode="@" horiz-adv-x="1751" d="M70 350q0 199 65 344q67 148 179 246q111 97 267 147q155 50 328 50q189 0 336 -56t242 -151q94 -94 145 -228q49 -129 49 -280q0 -218 -94 -336q-95 -119 -264 -119q-23 0 -51 3q-27 3 -60 16q-34 13 -61 34q-29 22 -57 62h-19q-44 -50 -107 -82q-64 -33 -151 -33 q-120 0 -195 66t-75 174q0 63 27 110t76 79t115 47q70 16 144 16h92v12q0 54 -34 84q-36 31 -86 31h-60v-72h-235v188q71 37 154 55q78 17 157 17q77 0 138 -17q65 -18 112 -56t74 -95q26 -55 26 -137v-193q0 -40 16 -77q15 -35 54 -35q19 0 36 10q16 9 30 37q15 30 22 70 q8 46 8 110q0 96 -20 186q-21 97 -77 174q-56 79 -159 130q-102 51 -268 51q-266 0 -410 -141q-143 -140 -143 -416q0 -178 57 -298t146 -194t194 -105q108 -32 207 -32q80 0 143 18q60 17 136 60l86 -180q-81 -55 -183 -78q-109 -25 -215 -25q-162 0 -315 50 q-150 49 -267 151q-118 103 -186 253q-69 153 -69 355zM803 231q0 -29 22 -54t68 -25q52 0 80 32t28 74v39h-127q-30 0 -51 -18q-20 -17 -20 -48z" />
<glyph unicode="A" horiz-adv-x="1722" d="M29 0v307h92l305 766h-164v307h891l449 -1073h92v-307h-776v276h143l-37 107h-397l-35 -107h164v-276h-727zM692 621h264l-104 272l-21 102h-20l-20 -102z" />
<glyph unicode="B" horiz-adv-x="1531" d="M61 0v307h103v766h-103v307h762q127 0 226 -19q103 -20 176 -63q75 -44 114 -111q41 -70 41 -165q0 -99 -42 -162q-43 -64 -119 -98v-21q41 -15 84 -42q40 -25 78 -69q36 -42 59 -100q22 -56 22 -129q0 -94 -41 -168q-40 -72 -115 -125q-76 -53 -183 -80 q-112 -28 -240 -28h-822zM674 287h102q93 0 130 46q38 47 38 107q0 61 -38 105q-37 43 -130 43h-102v-301zM674 842h86q145 0 145 131q0 65 -37 92q-38 27 -108 27h-86v-250z" />
<glyph unicode="C" horiz-adv-x="1435" d="M70 707q0 178 59 308q61 134 167 221q110 90 258 133q152 44 331 44q60 0 116 -4q75 -5 127 -14q68 -11 125 -28q63 -18 113 -42v-473h-387v256h-70q-55 0 -106 -24q-52 -24 -91 -71q-40 -47 -64 -120q-23 -69 -23 -168q0 -201 112 -322q111 -120 332 -120q81 0 157 15 q75 15 140 38v-293q-60 -27 -168 -51q-112 -25 -260 -25q-179 0 -338 44q-156 43 -275 135q-118 91 -187 231q-68 137 -68 330z" />
<glyph unicode="D" horiz-adv-x="1675" d="M61 0v307h103v766h-103v307h732q158 0 307 -38q148 -38 260 -120q113 -83 179 -213q67 -132 67 -315t-67 -315q-66 -130 -179 -216q-111 -85 -260 -124q-147 -39 -307 -39h-732zM674 287h63q89 0 151 31q60 30 102 86q40 53 60 127q19 70 19 157q0 84 -19 156 q-20 74 -60 129q-41 56 -103 87q-64 32 -152 32h-61v-805z" />
<glyph unicode="E" horiz-adv-x="1413" d="M61 0v307h103v766h-103v307h1258v-454h-387v147h-258v-219h330v-285h-330v-262h274v191h387v-498h-1274z" />
<glyph unicode="F" horiz-adv-x="1384" d="M61 0v307h103v766h-103v307h1262v-458h-387v151h-262v-233h334v-285h-334v-248h174v-307h-787z" />
<glyph unicode="G" horiz-adv-x="1558" d="M70 692q0 179 59 312q60 134 168 226q106 90 264 137q154 46 350 46q157 0 269 -25q116 -26 211 -63v-430h-387v213h-72q-148 0 -233 -99q-85 -98 -85 -304q0 -113 27 -194q27 -80 72 -133q46 -54 106 -77q64 -25 133 -25h52v154h-144v289h643v-285h-112v-368 q-92 -44 -225 -71q-137 -28 -283 -28q-195 0 -343 49q-149 49 -255 143q-104 92 -160 228q-55 134 -55 305z" />
<glyph unicode="H" horiz-adv-x="1695" d="M61 0v307h103v766h-103v307h725v-307h-102v-201h328v201h-103v307h725v-307h-102v-766h102v-307h-725v307h103v242h-328v-242h102v-307h-725z" />
<glyph unicode="I" horiz-adv-x="847" d="M61 0v307h103v766h-103v307h725v-307h-102v-766h100v-307h-723z" />
<glyph unicode="J" horiz-adv-x="886" d="M37 -152q97 29 132 113q34 81 34 229v883h-144v307h766v-307h-102v-852q0 -173 -53 -302q-52 -125 -146 -212q-92 -84 -217 -125q-126 -41 -270 -41v307z" />
<glyph unicode="K" horiz-adv-x="1693" d="M61 0v307h103v766h-103v307h725v-307h-102v-766h100v-307h-723zM715 666l213 321l86 66v20h-109v307h735v-307h-102l-256 -350l168 -274q40 -65 84 -103q45 -39 111 -39h20v-307q-59 -13 -105 -17q-66 -6 -106 -6q-104 0 -180 18q-79 18 -134 54q-62 40 -107 96 q-46 58 -97 144z" />
<glyph unicode="L" horiz-adv-x="1392" d="M61 0v307h103v766h-103v307h766v-307h-143v-766h244v236h387v-543h-1254z" />
<glyph unicode="M" horiz-adv-x="2351" d="M61 0v307h103v764h-103v309h914l166 -733l24 -205h19l24 205l174 733h908v-309h-103v-764h103v-307h-666v307h72v361l33 274l-21 4l-227 -946h-641l-228 946l-20 -4l33 -274v-361h71v-307h-635z" />
<glyph unicode="N" horiz-adv-x="1675" d="M61 0v307h103v766h-103v307h603l430 -665l16 8l-37 166v184h-102v307h643v-307h-103v-1073h-495l-434 676l-17 -8l37 -166v-195h103v-307h-644z" />
<glyph unicode="O" horiz-adv-x="1759" d="M70 694q0 174 55 306q56 136 160 226q104 91 255 139q150 48 341 48t341 -48q152 -49 254 -139q101 -90 158 -226q56 -135 56 -306q0 -170 -55 -306q-55 -135 -158 -228q-105 -94 -255 -144q-148 -49 -341 -49q-195 0 -343 49q-150 50 -255 144t-159 228t-54 306z M625 688q0 -92 13 -166t44 -131q30 -55 80 -87t119 -32q67 0 117 31q49 31 79 86q31 57 44 132q14 79 14 167q0 92 -15 169q-15 76 -45 133q-30 56 -79 87q-50 31 -115 31q-66 0 -117 -31q-50 -30 -80 -87t-45 -133q-14 -71 -14 -169z" />
<glyph unicode="P" horiz-adv-x="1503" d="M61 0v307h103v766h-103v307h730q153 0 269 -29q122 -30 203 -88q84 -60 127 -144q44 -86 44 -197q0 -222 -167 -347q-166 -124 -479 -124h-114v-144h164v-307h-777zM674 737h65q78 0 125 55t47 132q0 78 -46 124t-124 46h-67v-357z" />
<glyph unicode="Q" horiz-adv-x="1759" d="M70 694q0 174 55 306q56 136 160 226q105 91 254 139q150 48 340 48q191 0 341 -48q151 -48 255 -139q102 -89 159 -224q56 -133 56 -300q0 -115 -28 -221q-27 -101 -77 -182q-48 -78 -119 -136q-67 -55 -155 -83v-21q23 -35 60 -60q36 -24 81 -43q44 -18 89 -27 q47 -9 87 -9h62v-307q-48 -16 -103 -23q-59 -8 -114 -8q-111 0 -208 30t-175 81q-79 52 -133 122q-54 71 -78 152q-191 0 -343 50q-148 49 -254 144q-104 93 -158 227t-54 306zM625 688q0 -92 13 -166t44 -131q30 -55 80 -87t119 -32q67 0 117 31q49 31 79 86q31 57 44 132 q14 79 14 167q0 92 -15 169q-15 76 -45 133q-30 56 -79 87q-50 31 -115 31q-66 0 -117 -31q-50 -30 -80 -87t-45 -133q-14 -71 -14 -169z" />
<glyph unicode="R" horiz-adv-x="1533" d="M61 0v307h103v766h-103v307h707q152 0 268 -28q120 -29 202 -84q83 -56 128 -138t45 -188q0 -103 -44 -194q-44 -90 -148 -150v-20l79 -150q22 -43 66 -82t121 -39h20v-307q-32 -10 -97 -16q-74 -7 -120 -7q-104 0 -182 26q-75 25 -129 68t-90 98q-40 61 -68 118l-94 194 h-61v-174h81v-307h-684zM664 758h53q83 0 133 50q49 49 49 124q0 72 -49 117q-50 45 -131 45h-55v-336z" />
<glyph unicode="S" horiz-adv-x="1443" d="M86 1001q0 106 49 182q50 77 135 128q87 52 206 77q118 25 261 25q136 0 273 -19q133 -18 270 -55v-368h-387v137h-213q-26 0 -43 -7q-19 -8 -19 -30q0 -27 27 -51q30 -26 72 -49q54 -29 104 -50q31 -13 123 -57q82 -40 153 -82q77 -45 138 -102q59 -55 100 -130 q39 -72 39 -165q0 -101 -50 -181q-48 -77 -139 -131q-87 -52 -212 -79q-123 -27 -268 -27q-51 0 -131 5q-57 4 -151 16q-85 11 -159 28q-75 17 -151 47v390h387v-181h280q30 0 46 13t16 28q0 25 -29 49q-34 28 -77 50q-52 26 -109 51q-74 32 -127 59q-81 40 -150 82 q-72 44 -132 104q-56 56 -95 131q-37 71 -37 162z" />
<glyph unicode="T" horiz-adv-x="1687" d="M70 852v528h1548v-528h-387v221h-133v-766h149v-307h-807v307h150v766h-133v-221h-387z" />
<glyph unicode="U" horiz-adv-x="1654" d="M57 1073v307h738v-307h-115v-465q0 -73 4 -124q4 -56 21 -95t52 -60q38 -22 101 -22q56 0 92 19q37 19 54 55q19 39 23 93q5 63 5 132v467h-114v307h679v-307h-102v-440q0 -180 -40 -304q-41 -127 -121 -207t-204 -118q-121 -37 -290 -37q-164 0 -291 36t-213 116 t-131 207q-45 128 -45 309v438h-103z" />
<glyph unicode="V" horiz-adv-x="1673" d="M29 1073v307h774v-307h-133l151 -477l27 -143h20l27 143l160 477h-133v307h723v-307h-93l-417 -1073h-617l-397 1073h-92z" />
<glyph unicode="W" horiz-adv-x="2301" d="M29 1073v307h706v-307h-112l82 -395l18 -164h20l19 164l178 702h463l176 -702l18 -164h21l18 164l84 395h-112v307h665v-307h-92l-254 -1073h-622l-136 551l-18 164h-21l-18 -164l-139 -551h-598l-254 1073h-92z" />
<glyph unicode="X" horiz-adv-x="1626" d="M29 0v307h102l369 391l-348 375h-93v307h738v-274h-103l-4 -16l51 -35l111 -121l115 121l51 35l-4 16h-103v274h656v-307h-92l-351 -373l371 -393h102v-307h-768v276h123l4 17l-53 35l-131 139l-133 -139l-51 -35l4 -17h123v-276h-686z" />
<glyph unicode="Y" horiz-adv-x="1677" d="M29 1073v307h764v-307h-146l-4 -16l51 -45l162 -238l172 238l53 45l-4 16h-162v307h734v-307h-93l-471 -602v-164h148v-307h-807v307h147v164l-452 602h-92z" />
<glyph unicode="Z" horiz-adv-x="1464" d="M53 0v307l643 664l109 86l-4 16h-324v-201h-387v508h1305v-307l-643 -663l-111 -86l4 -17h371v205h387v-512h-1350z" />
<glyph unicode="[" horiz-adv-x="765" d="M135 -459v1921h594v-278h-188v-1364h178v-279h-584z" />
<glyph unicode="\" horiz-adv-x="960" d="M53 1366l291 92l563 -1591l-291 -92z" />
<glyph unicode="]" horiz-adv-x="765" d="M37 1184v278h594v-1921h-584v279h178v1364h-188z" />
<glyph unicode="^" horiz-adv-x="985" d="M2 690l369 690h239l373 -690h-326l-170 334h-28l-168 -334h-289z" />
<glyph unicode="_" horiz-adv-x="1204" d="M4 0h1196v-276h-1196v276z" />
<glyph unicode="`" horiz-adv-x="722" d="M100 1587q0 75 51 126q50 50 136 50q44 0 82 -17q40 -18 69 -65l215 -360l-176 -156l-295 262q-45 40 -63 80q-19 41 -19 80z" />
<glyph unicode="a" horiz-adv-x="1296" d="M86 270q0 95 42 158q41 62 113 103q70 40 161 58q86 17 190 17h115v21q0 63 -32 93q-31 30 -91 30h-74v-82h-356v282q52 22 117 39t132 27t134 15q73 5 120 5q237 0 371 -99q133 -99 133 -321v-239q0 -53 24 -76q23 -22 64 -22v-279q-32 -13 -73 -17q-58 -6 -82 -6 q-125 0 -199 48q-72 46 -102 133h-21q-41 -86 -125 -139q-83 -52 -211 -52q-68 0 -135 19q-64 18 -111 56t-75 94q-29 58 -29 134zM516 346q0 -67 82 -67q56 0 94 34q39 35 39 88v21h-108q-46 0 -77 -20q-30 -20 -30 -56z" />
<glyph unicode="b" horiz-adv-x="1359" d="M4 1184v278h594v-465l-78 -233h31q20 41 53 88q28 40 74 77q41 33 99 54q57 21 128 21q88 0 160 -33q73 -34 123 -92q53 -62 79 -144q27 -84 27 -184q0 -146 -55 -255q-57 -112 -149 -182q-95 -72 -220 -110q-123 -37 -266 -37q-66 0 -128 7q-66 8 -129 21 q-60 13 -120 35q-54 20 -100 50v1104h-123zM563 279h70q90 0 146 59q57 60 57 145q0 51 -24 91t-83 40q-70 0 -118 -60t-48 -151v-124z" />
<glyph unicode="c" horiz-adv-x="1167" d="M66 516q0 130 48 229t133 163q88 66 200 97q114 31 251 31q128 0 224 -23q100 -24 180 -63v-375h-357v150h-40q-83 0 -126 -46q-44 -47 -44 -138q0 -77 28 -124q29 -49 74 -76q46 -28 100 -38q53 -10 107 -10q84 0 151 18q68 18 107 39v-325q-49 -22 -152 -40 q-101 -18 -217 -18q-157 0 -281 39t-210 111q-87 73 -131 173q-45 102 -45 226z" />
<glyph unicode="d" horiz-adv-x="1372" d="M66 422q0 142 54 250t146 182q93 75 215 112q125 38 260 38h21v180h-123v278h594v-1085q0 -53 24 -76q23 -22 68 -22v-279q-35 -13 -77 -17q-58 -6 -85 -6q-133 0 -204 51q-69 49 -103 148h-20q-15 -40 -45 -77q-28 -35 -75 -66q-44 -29 -102 -47q-60 -19 -125 -19 q-75 0 -153 26q-74 25 -135 81t-98 141q-37 84 -37 207zM522 487q0 -49 25 -91q24 -40 84 -40q71 0 117 60q47 61 47 151v125h-68q-91 0 -147 -59q-58 -61 -58 -146z" />
<glyph unicode="e" horiz-adv-x="1228" d="M66 524q0 120 35 212q37 97 108 162q72 66 180 102t254 36q119 0 210 -23q97 -25 165 -75q70 -52 107 -132q38 -82 38 -194q0 -67 -11 -110q-14 -55 -30 -101h-587q17 -48 91 -86q69 -36 214 -36q141 0 233 38v-292q-49 -19 -141 -38q-97 -20 -217 -20q-141 0 -263 35 q-120 34 -206 104t-133 175q-47 106 -47 243zM485 616h279q0 74 -41 109t-98 35t-98 -34q-42 -34 -42 -110z" />
<glyph unicode="f" horiz-adv-x="882" d="M41 725v279h133q0 133 49 227q49 93 124 152q74 58 165 85q90 27 172 27q59 0 128 -12q65 -11 116 -31v-287h-123q-81 0 -120 -32q-40 -33 -40 -129h236v-279h-236v-446h143v-279h-727v279h113v446h-133z" />
<glyph unicode="g" horiz-adv-x="1351" d="M66 485q0 133 49 235q50 105 136 173t208 106q120 37 264 37q66 0 133 -7q81 -8 140 -20q63 -12 131 -35q60 -20 106 -50v-674q0 -202 -51 -343q-50 -139 -143 -229q-91 -88 -218 -127q-124 -38 -276 -38q-121 0 -193 17q-78 18 -127 40v326q52 -27 121 -42 q72 -16 133 -16q58 0 112 15q57 16 96 48q44 36 67 89q24 56 24 135v53h-20q-29 -58 -103 -98q-72 -39 -176 -39q-80 0 -158 28q-75 27 -132 84q-55 55 -90 139q-33 79 -33 193zM522 526q0 -45 25 -87q24 -40 84 -40q71 0 117 60q47 61 47 151v105h-68q-89 0 -147 -55 t-58 -134z" />
<glyph unicode="h" horiz-adv-x="1413" d="M35 1184v278h594v-426l-92 -278h30q22 43 57 94t82 90q49 41 114 68q64 26 153 26q149 0 225 -82t76 -229v-446h92v-279h-563v571q0 33 -16 65q-15 30 -54 30q-41 0 -73 -39q-31 -38 -31 -113v-235h82v-279h-656v279h103v905h-123z" />
<glyph unicode="i" horiz-adv-x="800" d="M49 0v279h119v446h-119v279h590v-725h123v-279h-713zM129 1358q0 88 61 142q62 54 195 54q137 0 199 -55q63 -55 63 -141t-63 -139q-65 -54 -199 -54q-133 0 -195 53q-61 52 -61 140z" />
<glyph unicode="j" horiz-adv-x="768" d="M20 -180q97 29 131 102q33 70 33 201v602h-112v279h583v-857q0 -126 -35 -231q-36 -108 -113 -191q-78 -84 -197 -133q-120 -49 -290 -51v279zM156 1358q0 88 61 142t195 54q136 0 198 -55q64 -56 64 -141q0 -86 -64 -139q-65 -54 -198 -54t-195 53q-61 52 -61 140z" />
<glyph unicode="k" horiz-adv-x="1398" d="M39 1184v278h594v-919h20l150 162v20h-82v279h618v-279h-71l-181 -197l103 -161q35 -53 65 -70q33 -18 78 -18h17v-279q-39 -9 -95 -16q-54 -7 -106 -7q-154 0 -243 53q-90 53 -152 160l-101 168h-20v-358h-584v279h113v905h-123z" />
<glyph unicode="l" horiz-adv-x="802" d="M47 1184v278h594v-1183h123v-279h-707v279h113v905h-123z" />
<glyph unicode="m" horiz-adv-x="1996" d="M55 0v279h103v446h-103v279h525v-82l-43 -164h30q14 37 44 92q26 49 71 90q47 44 104 69q62 27 144 27q117 0 184 -52t82 -118h31q35 75 112 122q78 48 199 48q84 0 142 -23q62 -25 100 -66q39 -42 58 -98q20 -58 20 -124v-446h92v-279h-564v592q0 34 -18 54t-49 20 q-41 0 -64 -31q-22 -29 -22 -80v-276h72v-279h-523v592q0 74 -65 74q-40 0 -65 -31q-23 -29 -23 -80v-276h71v-279h-645z" />
<glyph unicode="n" horiz-adv-x="1392" d="M55 0v279h99v446h-93v279h525v-82l-54 -164h31q16 37 49 89q28 45 78 90q47 43 113 71q65 28 155 28q143 0 220 -80q75 -78 75 -231v-446h93v-279h-564v567q0 53 -18 76t-47 23q-39 0 -66 -39q-26 -38 -26 -113v-235h69v-279h-639z" />
<glyph unicode="o" horiz-adv-x="1351" d="M66 514q0 131 46 229q46 99 128 164q84 67 193 98t243 31t243 -31t193 -98q82 -65 128 -164q46 -98 46 -229q0 -134 -46 -235q-47 -103 -128 -171q-83 -69 -193 -105q-111 -36 -243 -36t-243 36q-110 36 -193 105q-81 68 -128 171q-46 101 -46 235zM545 508q0 -44 5 -92 q5 -44 19 -76q15 -33 40 -52q26 -20 67 -20q38 0 64 20q25 19 40 52q16 35 20 76q5 48 5 92q0 42 -5 89q-4 42 -20 73q-15 31 -40 48q-24 17 -64 17q-43 0 -67 -17q-25 -17 -40 -48q-14 -28 -19 -73q-5 -47 -5 -89z" />
<glyph unicode="p" d="M47 -180h113v905h-113v279h565v-82l-53 -164h31q11 28 38 72q26 43 70 81t109 66q63 27 149 27q178 0 276 -122q97 -121 97 -325q0 -146 -50 -258q-49 -109 -136 -184q-85 -73 -202 -111q-114 -37 -249 -37h-61v-147h153v-279h-737v279zM598 279h70q90 0 146 59t56 145 q0 52 -23 91q-24 40 -83 40q-70 0 -118 -60t-48 -151v-124z" />
<glyph unicode="q" horiz-adv-x="1353" d="M66 453q0 140 53 249q53 108 145 184q91 74 216 112q126 38 268 38q66 0 128 -7q78 -9 131 -20q57 -12 123 -35q57 -20 103 -50v-1104h113v-279h-738v279h154v145l80 250h-31q-16 -40 -44 -80q-25 -36 -70 -68t-97 -49q-56 -18 -123 -18q-80 0 -156 29t-132 85 q-55 56 -90 141q-33 82 -33 198zM524 510q0 -50 24 -91q24 -40 83 -40q71 0 117 59q47 61 47 152v125h-68q-89 0 -146 -60t-57 -145z" />
<glyph unicode="r" horiz-adv-x="1099" d="M55 0v279h103v446h-103v279h514v-82l-53 -164h31q15 37 49 91q28 45 78 90q48 44 114 70q68 27 158 27q28 0 55 -3q29 -3 43 -7v-399q-38 12 -112 12q-66 0 -117 -11q-55 -12 -96 -42q-42 -31 -66 -84q-24 -52 -24 -137v-86h102v-279h-676z" />
<glyph unicode="s" horiz-adv-x="1200" d="M82 713q0 87 42 149q42 61 115 101q69 37 173 56q95 17 217 17q130 0 244 -15q111 -15 206 -38v-274h-356v61h-145q-41 0 -41 -29q0 -21 41 -36l276 -93q138 -46 208 -113q73 -70 73 -196q0 -89 -38 -153q-38 -63 -110 -104q-69 -39 -174 -59t-229 -20q-63 0 -141 5 q-29 2 -136 14q-60 7 -121 20q-54 12 -94 27v276h357v-76h180q21 0 30 9t9 18q0 27 -39 39l-281 92q-49 17 -101 46q-46 26 -85 68t-59 91q-21 51 -21 117z" />
<glyph unicode="t" horiz-adv-x="954" d="M27 725v279h133v307h471v-307h276v-279h-276v-252q0 -99 52 -142q53 -44 136 -44h62v-287q-41 -10 -111 -16q-77 -7 -121 -7q-96 0 -189 22q-89 21 -156 73q-66 51 -105 136q-39 86 -39 210v307h-133z" />
<glyph unicode="u" d="M47 725v279h563v-555q0 -49 23 -80t63 -31t64 32q24 31 24 103v252h-82v279h553v-621q0 -49 20 -77q20 -27 73 -27v-279q-75 -23 -164 -23q-132 0 -201 52q-67 51 -96 129h-21q-44 -81 -128 -136t-206 -55q-89 0 -162 32q-74 33 -124 88q-53 59 -79 133q-28 79 -28 169 v336h-92z" />
<glyph unicode="v" horiz-adv-x="1333" d="M20 725v279h467l162 -494l27 -143h20l27 143l74 215h-103v279h619v-279h-92l-306 -725h-524l-278 725h-93z" />
<glyph unicode="w" horiz-adv-x="1906" d="M20 725v279h465l82 -412l21 -154h20l21 154l82 412h469l106 -412l23 -154h20l21 154l34 133h-61v279h563v-279h-82l-194 -725h-580l-72 324l-16 153h-20l-17 -153l-61 -324h-570l-172 725h-82z" />
<glyph unicode="x" horiz-adv-x="1355" d="M49 0v279h82l225 227l-215 219h-82v279h428l240 -259h21v259h548v-279h-82l-217 -219l115 -123q41 -44 89 -74t106 -30v-279q-40 -13 -90 -17q-70 -6 -99 -6q-119 0 -209 35q-85 33 -170 121l-121 125h-20v-258h-549z" />
<glyph unicode="y" horiz-adv-x="1374" d="M47 725v279h563v-512q0 -49 23 -80t63 -31t64 30t24 89v225h-82v279h553v-781q0 -174 -50 -309q-49 -132 -142 -222q-92 -89 -219 -134q-128 -45 -281 -45q-111 0 -195 17q-93 19 -141 40v326q55 -28 132 -43q75 -15 135 -15q145 0 226 78t81 217h-21q-39 -65 -99 -94 q-61 -29 -144 -29q-93 0 -168 32q-74 32 -125 87q-51 56 -78 133q-27 78 -27 170v293h-92z" />
<glyph unicode="z" horiz-adv-x="1214" d="M70 0v279l368 335l183 131v21h-185v-98h-356v336h1065v-263l-369 -338l-196 -145v-20h208v118h357v-356h-1075z" />
<glyph unicode="{" horiz-adv-x="919" d="M111 352v299q93 0 137 37q45 38 45 129v230q0 125 41 207q40 81 106 127q65 46 148 64q78 17 162 17h131v-278q-52 0 -91 -13q-37 -12 -56 -33q-18 -19 -26 -52q-8 -32 -8 -64v-309q0 -94 -58 -143q-59 -50 -196 -56v-25q137 -8 196 -59q58 -51 58 -143v-310 q0 -75 52 -116t131 -41v-279h-133q-80 0 -162 18q-85 19 -148 63q-66 46 -106 127q-41 82 -41 208v229q0 92 -46 129t-136 37z" />
<glyph unicode="|" horiz-adv-x="620" d="M152 -459v1921h317v-1921h-317z" />
<glyph unicode="}" horiz-adv-x="919" d="M37 -180q79 0 131 41q51 40 51 116v310q0 92 59 143q59 52 195 59v25q-136 6 -195 56t-59 143v309q0 36 -7 64q-8 31 -27 52q-20 21 -55 33q-39 13 -91 13v278h131q84 0 162 -17q81 -18 147 -64q67 -47 107 -127q41 -82 41 -207v-230q0 -91 45 -129q44 -37 137 -37v-299 q-90 0 -136 -37t-46 -129v-229q0 -126 -41 -208q-40 -80 -107 -127q-64 -45 -147 -63q-82 -18 -162 -18h-133v279z" />
<glyph unicode="~" horiz-adv-x="1292" d="M102 528q12 56 36 104q23 47 59 84q32 34 85 56q50 21 117 21q71 0 131 -21q62 -22 121 -49l228 -100l196 135l115 -135q-12 -55 -36 -105t-59 -86q-34 -35 -85 -57q-50 -21 -115 -21q-78 0 -144 27q-9 4 -59 24t-76 31l-204 92l-195 -135z" />
<glyph unicode="&#xa2;" horiz-adv-x="1179" d="M66 573q0 210 108 354q108 145 297 185v268h348v-268q163 -18 295 -76v-379h-328v150h-88q-86 0 -134 -57t-48 -156q0 -80 33 -130q35 -52 81 -78q50 -28 104 -38t106 -10q51 0 110 7q65 8 127 24v-283q-44 -17 -109 -33q-63 -16 -149 -22v-234h-348v238 q-201 79 -304 211q-101 129 -101 327z" />
<glyph unicode="&#xa3;" horiz-adv-x="1366" d="M61 0v307h123v287h-121v303h144v107q0 122 48 213t131 153q82 61 196 93t241 32q118 0 245 -25q125 -25 208 -61v-405h-387v184h-41q-80 0 -117 -49t-37 -135v-107h256v-303h-256v-287h207v185h387v-492h-1227z" />
<glyph unicode="&#xa5;" horiz-adv-x="1542" d="M20 1380h500l211 -450l35 -137h12l39 137l232 450h473l-348 -536h161v-273h-346v-77h346v-273h-346v-221h-459v221h-329v273h329v77h-329v273h149z" />
<glyph unicode="&#xa8;" horiz-adv-x="1101" d="M90 1358q0 86 55 142t148 56q92 0 147 -56q56 -58 56 -142q0 -85 -56 -141t-147 -56q-92 0 -148 56q-55 55 -55 141zM606 1356q0 84 56 142q55 56 147 56t147 -56q56 -58 56 -142q0 -86 -56 -142q-55 -55 -147 -55t-147 55q-56 56 -56 142z" />
<glyph unicode="&#xa9;" horiz-adv-x="1617" d="M70 707q0 173 58 304q59 133 163 221q106 89 248 135t313 46q155 0 284 -38t220 -111q92 -74 142 -183t50 -247q0 -133 -43 -231q-44 -100 -120 -167q-75 -66 -180 -101q-102 -34 -224 -34q-115 0 -208 30q-94 30 -160 83q-65 52 -103 128q-37 74 -37 165q0 74 28 146 q27 68 80 120q52 51 125 81q70 29 164 29q79 0 140 -19q64 -20 116 -48v-266h-208v147h-52q-29 0 -51 -7q-24 -7 -44 -26q-18 -17 -31 -50q-11 -29 -11 -79q0 -52 14 -93q15 -44 47 -79q31 -34 82 -55t127 -21q149 0 240 82q92 83 92 236q0 77 -27 152q-27 76 -87 134 q-60 59 -154 93q-96 35 -225 35q-119 0 -218 -32q-96 -31 -166 -95q-67 -61 -106 -156q-37 -90 -37 -215q0 -165 64 -275q63 -108 156 -171q92 -62 201 -88q106 -25 196 -25q72 0 154 13q88 14 155 40l63 -164q-77 -36 -161 -59q-92 -25 -226 -25q-170 0 -323 45 q-151 44 -269 138q-117 92 -184 230q-67 137 -67 327z" />
<glyph unicode="&#xab;" horiz-adv-x="1343" d="M131 416v176l354 381l220 -195l-252 -278l247 -275l-219 -194zM721 416v176l354 381l219 -195l-252 -278l248 -275l-219 -194z" />
<glyph unicode="&#xad;" horiz-adv-x="856" d="M102 414v311h652v-311h-652z" />
<glyph unicode="&#xae;" horiz-adv-x="1619" d="M70 694q0 180 60 313q59 132 166 225q104 90 247 136q141 45 305 45q173 0 304 -49q133 -50 220 -134q88 -85 133 -202t45 -252q0 -123 -32 -203q-33 -83 -85 -132q-53 -50 -117 -71q-68 -22 -126 -22q-47 0 -101 12t-103 41q-47 28 -86 76q-37 46 -54 115h-39v-225h-268 v141h61v387h-61v141h297q88 0 143 -16q57 -16 92 -44q34 -26 49 -68q15 -41 15 -85q0 -50 -20 -95q-19 -42 -73 -64v-13q10 -58 53 -92q42 -33 95 -33q71 0 107 59t36 169q0 100 -29 183q-29 82 -92 147q-62 63 -156 99t-227 36q-244 0 -380 -127q-138 -129 -138 -379 q0 -152 49 -256q48 -103 131 -170q81 -66 186 -96q101 -29 220 -29q77 0 140 11q71 12 141 40l57 -156q-68 -41 -171 -66q-99 -24 -216 -24q-155 0 -296 45q-139 44 -248 135q-108 90 -171 227q-63 136 -63 320zM807 733h20q60 0 84 21q25 22 25 59q0 46 -28 65 q-25 17 -81 17h-20v-162z" />
<glyph unicode="&#xb4;" horiz-adv-x="722" d="M59 1321l217 358q29 49 71 67q38 17 81 17q85 0 135 -50q49 -49 49 -124q0 -36 -15 -79q-15 -44 -62 -85l-299 -260z" />
<glyph unicode="&#xb8;" horiz-adv-x="600" d="M90 -301h27q69 0 89 13q21 14 21 42q0 38 -27 53t-71 15l25 192h204v-88q60 -4 106 -52q46 -47 46 -132q0 -112 -73 -171q-71 -58 -197 -58q-92 0 -150 26v160z" />
<glyph unicode="&#xbb;" horiz-adv-x="1343" d="M49 778l219 195l355 -381v-176l-353 -385l-219 194l250 275zM639 778l219 195l354 -381v-176l-352 -385l-219 194l250 275z" />
<glyph unicode="&#x2c6;" horiz-adv-x="1038" d="M70 1317l268 356q35 48 83 70q47 22 97 22q53 0 98 -22q47 -23 82 -70l271 -356l-156 -154l-295 234l-293 -234z" />
<glyph unicode="&#x2da;" horiz-adv-x="587" d="M47 1403q0 47 20 92q20 44 53 76q35 33 79 51q45 18 96 18t95 -18t78 -51q33 -32 53 -76q20 -45 20 -92t-20 -92q-20 -44 -53 -76q-34 -33 -78 -51q-46 -19 -95 -19t-96 19q-44 18 -79 51q-33 32 -53 76q-20 45 -20 92zM238 1403q0 -60 57 -60q24 0 40 16q15 15 15 44 q0 25 -15 41t-40 16q-28 0 -43 -16q-14 -15 -14 -41z" />
<glyph unicode="&#x2dc;" horiz-adv-x="925" d="M70 1315q0 105 63 163q62 58 168 58q73 0 139 -20q70 -21 150 -56l125 76l141 -131q0 -103 -64 -160t-169 -57q-71 0 -140 21q-67 21 -149 59l-125 -76z" />
<glyph unicode="&#x400;" horiz-adv-x="1413" d="M61 0v307h103v766h-103v307h1258v-454h-387v147h-258v-219h330v-285h-330v-262h274v191h387v-498h-1274zM281 1948q0 76 50 126t136 50q41 0 82 -18t69 -64l216 -361l-177 -155l-295 262q-45 40 -63 80q-18 39 -18 80z" />
<glyph unicode="&#x401;" horiz-adv-x="1413" d="M61 0v307h103v766h-103v307h1258v-454h-387v147h-258v-219h330v-285h-330v-262h274v191h387v-498h-1274zM246 1718q0 87 55 143t148 56q92 0 147 -56t55 -143q0 -86 -55 -141t-147 -55q-93 0 -148 55t-55 141zM762 1716q0 87 55 143t148 56q92 0 147 -56t55 -143 q0 -86 -55 -141t-147 -55q-93 0 -148 55t-55 141z" />
<glyph unicode="&#x402;" horiz-adv-x="1830" d="M70 893v487h1536v-487h-387v180h-127v-282l-66 -238h18q7 13 47 80q26 44 72 85q41 37 112 66q66 27 159 27q159 0 247 -94t88 -293v-258q0 -118 -29 -225q-30 -109 -101 -199q-70 -88 -191 -142q-123 -55 -301 -59v330q42 1 79 38q36 36 36 134v313q0 9 -4 31 q-3 17 -10 31t-19 23q-13 10 -31 10q-33 0 -63 -33q-31 -34 -31 -111v-307h-664v307h144v766h-127v-180h-387z" />
<glyph unicode="&#x403;" horiz-adv-x="1353" d="M61 0v307h103v766h-103v307h1231v-528h-387v221h-221v-766h164v-307h-787zM465 1679l217 359q29 47 71 66q41 18 81 18q85 0 135 -50q49 -49 49 -124q0 -33 -16 -79q-15 -44 -62 -85l-299 -260z" />
<glyph unicode="&#x404;" horiz-adv-x="1435" d="M70 707q0 178 59 308q61 134 167 221q110 90 258 133q152 44 331 44q60 0 116 -4q75 -5 127 -14q68 -11 125 -28q63 -18 113 -42v-381h-387v164h-70q-123 0 -207 -67q-81 -65 -98 -201h438v-308h-438q16 -51 44 -94q30 -45 80 -80q48 -33 125 -55q71 -20 181 -20 q81 0 171 13q96 14 161 40v-293q-60 -27 -168 -51q-112 -25 -260 -25q-179 0 -338 44q-156 43 -275 135q-118 91 -187 231q-68 137 -68 330z" />
<glyph unicode="&#x405;" horiz-adv-x="1443" d="M86 1001q0 106 49 182q50 77 135 128q87 52 206 77q118 25 261 25q136 0 273 -19q133 -18 270 -55v-368h-387v137h-213q-26 0 -43 -7q-19 -8 -19 -30q0 -27 27 -51q30 -26 72 -49q54 -29 104 -50q31 -13 123 -57q82 -40 153 -82q77 -45 138 -102q59 -55 100 -130 q39 -72 39 -165q0 -101 -50 -181q-48 -77 -139 -131q-87 -52 -212 -79q-123 -27 -268 -27q-51 0 -131 5q-57 4 -151 16q-85 11 -159 28q-75 17 -151 47v390h387v-181h280q30 0 46 13t16 28q0 25 -29 49q-34 28 -77 50q-52 26 -109 51q-74 32 -127 59q-81 40 -150 82 q-72 44 -132 104q-56 56 -95 131q-37 71 -37 162z" />
<glyph unicode="&#x406;" horiz-adv-x="847" d="M61 0v307h103v766h-103v307h725v-307h-102v-766h100v-307h-723z" />
<glyph unicode="&#x407;" horiz-adv-x="847" d="M-37 1716q0 87 55 143t148 56q92 0 147 -56q56 -58 56 -143t-56 -141q-55 -55 -147 -55q-93 0 -148 55t-55 141zM61 0v307h103v766h-103v307h725v-307h-102v-766h100v-307h-723zM479 1714q0 85 56 143q55 56 147 56t147 -56q56 -58 56 -143t-56 -141q-55 -55 -147 -55 t-147 55q-56 56 -56 141z" />
<glyph unicode="&#x408;" horiz-adv-x="886" d="M37 -152q97 29 132 113q34 81 34 229v883h-144v307h766v-307h-102v-852q0 -173 -53 -302q-52 -125 -146 -212q-92 -84 -217 -125q-126 -41 -270 -41v307z" />
<glyph unicode="&#x409;" horiz-adv-x="2433" d="M29 0v307h133l436 764h-174v309h1327v-307h-123v-217h103q305 0 469 -102q163 -102 163 -322q0 -223 -165 -327q-166 -105 -472 -105h-743v307h123v715h-19l-380 -715h143v-307h-821zM1618 287h72q61 0 104 31t43 110q0 76 -41 108q-40 31 -102 31h-76v-280z" />
<glyph unicode="&#x40a;" horiz-adv-x="2316" d="M61 0v307h103v766h-103v307h725v-307h-102v-201h328v201h-103v307h725v-307h-102v-217h82q306 0 469 -102q164 -102 164 -322q0 -222 -166 -327q-167 -105 -471 -105h-701v307h103v242h-328v-242h102v-307h-725zM1522 287h51q61 0 104 31t43 110q0 76 -41 108 q-40 31 -102 31h-55v-280z" />
<glyph unicode="&#x40b;" horiz-adv-x="1939" d="M70 893v487h1536v-487h-387v180h-127v-282l-66 -238h18q16 34 49 84q32 48 75 84q45 38 111 64t157 26q159 0 246 -94q87 -95 87 -293v-117h123v-307h-630v356q0 26 -13 62q-12 33 -51 33q-33 0 -63 -32q-31 -33 -31 -108v-311h-664v307h144v766h-127v-180h-387z" />
<glyph unicode="&#x40c;" horiz-adv-x="1693" d="M61 0v307h103v766h-103v307h725v-307h-102v-766h100v-307h-723zM694 1679l217 359q29 47 71 66q40 18 81 18q85 0 135 -50q49 -49 49 -124q0 -36 -15 -79t-63 -85l-299 -260zM715 666l213 321l86 66v20h-109v307h735v-307h-102l-256 -350l168 -274q40 -65 84 -103 q45 -39 111 -39h20v-307q-59 -13 -105 -17q-66 -6 -106 -6q-104 0 -180 18q-79 18 -134 54q-62 40 -107 96q-46 58 -97 144z" />
<glyph unicode="&#x40d;" horiz-adv-x="1677" d="M53 1073v307h684v-307h-82v-385h21l53 143l287 549h600v-307h-103v-766h103v-307h-694v307h92v412h-21l-53 -144l-305 -575h-479v1073h-103zM451 1946q0 76 50 126t136 50q42 0 82 -18q41 -18 69 -64l216 -361l-177 -155l-295 262q-45 40 -63 80q-18 39 -18 80z" />
<glyph unicode="&#x40e;" horiz-adv-x="1611" d="M29 1073v307h739v-307h-121l-4 -16l41 -45l158 -283l147 283l41 45l-4 16h-125v307h682v-307h-82l-444 -766q-99 -169 -234 -255q-134 -85 -348 -85q-62 0 -122 7q-62 7 -128 26v307h176q90 0 148 35l-438 731h-82zM379 1929l276 51q5 -78 41 -122q38 -46 109 -46 q66 0 107 46q39 44 44 122l277 -51q-1 -91 -35 -167q-33 -74 -90 -127t-135 -81q-77 -28 -170 -28t-170 28t-133 81t-87 127q-33 77 -34 167z" />
<glyph unicode="&#x40f;" horiz-adv-x="1634" d="M61 0v307h103v766h-103v307h623v-1073h266v766h-123v307h746v-307h-103v-766h103v-307h-551v-248h-410v248h-551z" />
<glyph unicode="&#x410;" horiz-adv-x="1722" d="M29 0v307h92l305 766h-164v307h891l449 -1073h92v-307h-776v276h143l-37 107h-397l-35 -107h164v-276h-727zM692 621h264l-104 272l-21 102h-20l-20 -102z" />
<glyph unicode="&#x411;" horiz-adv-x="1519" d="M61 0v307h103v766h-103v307h1280v-430h-387v123h-280v-196h112q317 0 491 -115q173 -114 173 -326q0 -213 -174 -324q-176 -112 -494 -112h-721zM674 287h74q79 0 129 37q51 38 51 114q0 78 -49 115t-127 37h-78v-303z" />
<glyph unicode="&#x412;" horiz-adv-x="1531" d="M61 0v307h103v766h-103v307h762q127 0 226 -19q103 -20 176 -63q75 -44 114 -111q41 -70 41 -165q0 -99 -42 -162q-43 -64 -119 -98v-21q41 -15 84 -42q40 -25 78 -69q36 -42 59 -100q22 -56 22 -129q0 -94 -41 -168q-40 -72 -115 -125q-76 -53 -183 -80 q-112 -28 -240 -28h-822zM674 287h102q93 0 130 46q38 47 38 107q0 61 -38 105q-37 43 -130 43h-102v-301zM674 842h86q145 0 145 131q0 65 -37 92q-38 27 -108 27h-86v-250z" />
<glyph unicode="&#x413;" horiz-adv-x="1353" d="M61 0v307h103v766h-103v307h1231v-528h-387v221h-221v-766h164v-307h-787z" />
<glyph unicode="&#x414;" horiz-adv-x="1781" d="M29 -248v555h153l287 766h-176v307h903l403 -1073h154v-555h-410v248h-905v-248h-409zM653 307h414l-176 531l-21 102h-20l-21 -102z" />
<glyph unicode="&#x415;" horiz-adv-x="1413" d="M61 0v307h103v766h-103v307h1258v-454h-387v147h-258v-219h330v-285h-330v-262h274v191h387v-498h-1274z" />
<glyph unicode="&#x416;" horiz-adv-x="2506" d="M29 0v307h20q66 0 113 38q48 39 82 104l149 274l-237 350h-103v307h735v-307h-108v-20l86 -66l195 -321l-203 -377q-46 -85 -94 -145q-45 -57 -107 -94q-60 -36 -135 -52q-74 -16 -180 -16q-64 0 -108 4q-60 5 -105 14zM891 0v307h102v766h-102v307h725v-307h-103v-766 h101v-307h-723zM1544 666l213 321l86 66v20h-108v307h735v-307h-103l-256 -350l168 -274q40 -65 84 -103q45 -39 111 -39h20v-307q-59 -13 -105 -17q-66 -6 -105 -6q-105 0 -181 18q-79 18 -134 54q-60 38 -106 96q-50 62 -98 144z" />
<glyph unicode="&#x417;" horiz-adv-x="1337" d="M70 31v317q39 -12 91 -24q71 -16 113 -21q82 -10 118 -13q65 -5 102 -5q76 0 122 14q51 15 78 37q28 22 40 51q11 26 11 57q0 66 -48 92q-47 25 -128 25h-184v287h184q77 0 124 35q46 34 46 106q0 70 -46 94q-48 25 -124 25h-112v-154h-387v373q51 20 108 34 q75 18 136 28q72 12 152 18q79 6 155 6q135 0 245 -22q112 -22 194 -68q81 -45 126 -114t45 -160q0 -93 -43 -166q-44 -74 -121 -117v-21q91 -33 145 -117q56 -86 56 -202q0 -96 -40 -177q-41 -83 -126 -146q-82 -60 -221 -99q-133 -37 -324 -37q-53 0 -118 3q-41 2 -130 12 q-70 8 -128 19q-60 11 -111 30z" />
<glyph unicode="&#x418;" horiz-adv-x="1677" d="M53 1073v307h684v-307h-82v-385h21l53 143l287 549h600v-307h-103v-766h103v-307h-694v307h92v412h-21l-53 -144l-305 -575h-479v1073h-103z" />
<glyph unicode="&#x419;" horiz-adv-x="1677" d="M53 1073v307h684v-307h-82v-385h21l53 143l287 549h600v-307h-103v-766h103v-307h-694v307h92v412h-21l-53 -144l-305 -575h-479v1073h-103zM406 1929l276 51q5 -78 41 -122q38 -46 108 -46q67 0 108 46q39 44 44 122l277 -51q-1 -91 -35 -167q-33 -74 -90 -127 q-56 -52 -136 -81q-77 -28 -170 -28t-170 28t-133 81t-87 127q-31 75 -33 167z" />
<glyph unicode="&#x41a;" horiz-adv-x="1693" d="M61 0v307h103v766h-103v307h725v-307h-102v-766h100v-307h-723zM715 666l213 321l86 66v20h-109v307h735v-307h-102l-256 -350l168 -274q40 -65 84 -103q45 -39 111 -39h20v-307q-59 -13 -105 -17q-66 -6 -106 -6q-104 0 -180 18q-79 18 -134 54q-62 40 -107 96 q-46 58 -97 144z" />
<glyph unicode="&#x41b;" horiz-adv-x="1679" d="M29 0v307h92l297 766h-164v307h868l437 -1073h92v-307h-783v307h154l-188 510l-21 103h-20l-21 -103l-180 -510h153v-307h-716z" />
<glyph unicode="&#x41c;" horiz-adv-x="2351" d="M61 0v307h103v764h-103v309h914l166 -733l24 -205h19l24 205l174 733h908v-309h-103v-764h103v-307h-666v307h72v361l33 274l-21 4l-227 -946h-641l-228 946l-20 -4l33 -274v-361h71v-307h-635z" />
<glyph unicode="&#x41d;" horiz-adv-x="1695" d="M61 0v307h103v766h-103v307h725v-307h-102v-201h328v201h-103v307h725v-307h-102v-766h102v-307h-725v307h103v242h-328v-242h102v-307h-725z" />
<glyph unicode="&#x41e;" horiz-adv-x="1759" d="M70 694q0 174 55 306q56 136 160 226q104 91 255 139q150 48 341 48t341 -48q152 -49 254 -139q101 -90 158 -226q56 -135 56 -306q0 -170 -55 -306q-55 -135 -158 -228q-105 -94 -255 -144q-148 -49 -341 -49q-195 0 -343 49q-150 50 -255 144t-159 228t-54 306z M625 688q0 -92 13 -166t44 -131q30 -55 80 -87t119 -32q67 0 117 31q49 31 79 86q31 57 44 132q14 79 14 167q0 92 -15 169q-15 76 -45 133q-30 56 -79 87q-50 31 -115 31q-66 0 -117 -31q-50 -30 -80 -87t-45 -133q-14 -71 -14 -169z" />
<glyph unicode="&#x41f;" horiz-adv-x="1632" d="M61 0v307h103v764h-103v309h1510v-309h-103v-764h103v-307h-623v1071h-264v-764h123v-307h-746z" />
<glyph unicode="&#x420;" horiz-adv-x="1503" d="M61 0v307h103v766h-103v307h730q153 0 269 -29q122 -30 203 -88q84 -60 127 -144q44 -86 44 -197q0 -222 -167 -347q-166 -124 -479 -124h-114v-144h164v-307h-777zM674 737h65q78 0 125 55t47 132q0 78 -46 124t-124 46h-67v-357z" />
<glyph unicode="&#x421;" horiz-adv-x="1435" d="M70 707q0 178 59 308q61 134 167 221q110 90 258 133q152 44 331 44q60 0 116 -4q75 -5 127 -14q68 -11 125 -28q63 -18 113 -42v-473h-387v256h-70q-55 0 -106 -24q-52 -24 -91 -71q-40 -47 -64 -120q-23 -69 -23 -168q0 -201 112 -322q111 -120 332 -120q81 0 157 15 q75 15 140 38v-293q-60 -27 -168 -51q-112 -25 -260 -25q-179 0 -338 44q-156 43 -275 135q-118 91 -187 231q-68 137 -68 330z" />
<glyph unicode="&#x422;" horiz-adv-x="1687" d="M70 852v528h1548v-528h-387v221h-133v-766h149v-307h-807v307h150v766h-133v-221h-387z" />
<glyph unicode="&#x423;" horiz-adv-x="1611" d="M29 1073v307h739v-307h-121l-4 -16l41 -45l158 -283l147 283l41 45l-4 16h-125v307h682v-307h-82l-444 -766q-99 -169 -234 -255q-134 -85 -348 -85q-62 0 -122 7q-62 7 -128 26v307h176q90 0 148 35l-438 731h-82z" />
<glyph unicode="&#x424;" horiz-adv-x="2154" d="M70 696q0 151 56 263q57 115 149 190q93 76 215 114q120 37 251 37h93v113h-113v287h713v-287h-113v-113h92q134 0 251 -39q122 -41 215 -117q92 -76 150 -190q56 -111 56 -260t-56 -260q-57 -112 -150 -189q-94 -77 -215 -116q-122 -39 -251 -39h-92v-123h113v-286h-713 v286h113v123h-93q-129 0 -251 39q-123 40 -215 115q-93 76 -149 189q-56 112 -56 263zM586 698q0 -77 17 -132q18 -60 46 -99q30 -43 66 -63q37 -21 78 -21h41v623h-41q-41 0 -78 -21q-39 -22 -66 -60q-27 -39 -46 -98q-17 -54 -17 -129zM1321 383h41q38 0 76 21 q33 19 66 63q28 38 47 99q18 58 18 130q0 74 -18 131q-19 60 -47 98q-29 39 -66 60q-38 21 -76 21h-41v-623z" />
<glyph unicode="&#x425;" horiz-adv-x="1626" d="M29 0v307h102l369 391l-348 375h-93v307h738v-274h-103l-4 -16l51 -35l111 -121l115 121l51 35l-4 16h-103v274h656v-307h-92l-351 -373l371 -393h102v-307h-768v276h123l4 17l-53 35l-131 139l-133 -139l-51 -35l4 -17h123v-276h-686z" />
<glyph unicode="&#x426;" horiz-adv-x="1724" d="M61 0v307h103v766h-103v307h623v-1073h264v766h-123v307h756v-307h-113v-766h226v-555h-410v248h-1223z" />
<glyph unicode="&#x427;" horiz-adv-x="1662" d="M29 1073v307h725v-307h-103v-119q0 -60 17 -100q16 -38 43 -62q28 -25 61 -32q37 -8 72 -8q77 0 135 26v295h-102v307h725v-307h-103v-766h103v-307h-787v307h164v152q-46 -16 -130 -30q-79 -13 -165 -13q-121 0 -224 35q-101 34 -175 99q-73 64 -114 158q-40 92 -40 210 v155h-102z" />
<glyph unicode="&#x428;" horiz-adv-x="2347" d="M61 0v307h103v766h-103v307h623v-1073h229v766h-106v307h627v-1073h229v766h-107v307h730v-307h-103v-766h103v-307h-2225z" />
<glyph unicode="&#x429;" horiz-adv-x="2439" d="M61 0v307h103v766h-103v307h623v-1073h231v766h-108v307h629v-1073h227v766h-104v307h737v-307h-113v-766h225v-555h-409v248h-1938z" />
<glyph unicode="&#x42a;" horiz-adv-x="1855" d="M18 872v508h1162v-309h-123v-194h65q318 0 491 -108t173 -327q0 -220 -174 -331t-494 -111h-684v307h103v764h-131v-199h-388zM1047 287h40q79 0 125 36q48 37 48 113t-48 115q-46 37 -125 37h-40v-301z" />
<glyph unicode="&#x42b;" horiz-adv-x="2256" d="M61 0v307h103v766h-103v307h766v-307h-143v-196h66q316 0 489 -108q172 -108 172 -327q0 -220 -173 -331q-172 -111 -493 -111h-684zM674 287h41q77 0 124 35q46 34 46 112q0 79 -46 116q-47 38 -124 38h-41v-301zM1470 0v307h103v766h-103v307h725v-307h-102v-766h100 v-307h-723z" />
<glyph unicode="&#x42c;" horiz-adv-x="1480" d="M61 0v307h103v766h-103v307h766v-307h-143v-196h66q316 0 489 -108q172 -108 172 -327q0 -220 -173 -331q-172 -111 -493 -111h-684zM674 287h41q77 0 124 35q46 34 46 112q0 79 -46 116q-47 38 -124 38h-41v-301z" />
<glyph unicode="&#x42d;" horiz-adv-x="1433" d="M70 45v285q72 -27 168 -42q102 -16 184 -16q90 0 168 18q79 18 136 49q57 30 91 79q33 46 33 106h-475v307l479 1q0 60 -20 107q-22 51 -60 88q-40 39 -95 59q-60 22 -128 22h-94v-172h-387v391q54 25 118 41q65 16 138 27q56 9 136 14q59 4 118 4q163 0 305 -40 q145 -41 250 -125q107 -86 168 -219q61 -132 61 -320q0 -180 -58 -317t-171 -232q-112 -94 -275 -144q-160 -49 -368 -49q-87 0 -147 7q-70 8 -116 19q-65 15 -90 24q-42 15 -69 28z" />
<glyph unicode="&#x42e;" horiz-adv-x="2383" d="M61 0v307h103v766h-103v307h725v-307h-102v-221h174q44 270 233 416q188 145 484 145q167 0 302 -46q137 -47 233 -137q99 -93 151 -225q53 -135 53 -311q0 -175 -53 -311q-52 -134 -150 -227q-98 -94 -233 -141q-136 -48 -303 -48q-143 0 -264 36q-119 35 -213 106 q-93 70 -154 174q-62 106 -86 241h-174v-217h102v-307h-725zM1380 682q0 -71 9 -161q7 -74 30 -130q22 -54 61 -87q38 -32 99 -32q63 0 100 34q38 35 58 90q20 54 26 130q6 74 6 156q0 84 -6 162q-6 81 -26 136q-21 58 -59 93t-99 35q-59 0 -97 -32q-39 -33 -61 -89 q-22 -55 -31 -135q-10 -87 -10 -170z" />
<glyph unicode="&#x42f;" horiz-adv-x="1531" d="M39 0v307h31q61 0 111 26q51 26 79 75l98 170v12q-96 39 -160 131q-63 90 -63 225q0 94 36 174t111 137q78 59 192 91q115 32 284 32h712v-309h-102v-764h102v-307h-684v307h82v154h-51l-153 -275q-59 -104 -152 -154q-92 -50 -256 -50q-58 0 -114 4q-68 5 -103 14z M647 922q0 -76 45 -130q46 -55 135 -55h41v355h-41q-90 0 -135 -46t-45 -124z" />
<glyph unicode="&#x430;" horiz-adv-x="1296" d="M86 270q0 95 42 158q41 62 113 103q70 40 161 58q86 17 190 17h115v21q0 63 -32 93q-31 30 -91 30h-74v-82h-356v282q52 22 117 39t132 27t134 15q73 5 120 5q237 0 371 -99q133 -99 133 -321v-239q0 -53 24 -76q23 -22 64 -22v-279q-32 -13 -73 -17q-58 -6 -82 -6 q-125 0 -199 48q-72 46 -102 133h-21q-41 -86 -125 -139q-83 -52 -211 -52q-68 0 -135 19q-64 18 -111 56t-75 94q-29 58 -29 134zM516 346q0 -67 82 -67q56 0 94 34q39 35 39 88v21h-108q-46 0 -77 -20q-30 -20 -30 -56z" />
<glyph unicode="&#x431;" horiz-adv-x="1353" d="M119 80v702q0 161 50 272q50 110 132 179q84 70 186 108q109 41 215 62l447 92v-369l-379 -82q-111 -22 -168 -87t-57 -158v-21h20q17 28 47 55q31 28 74 50q44 23 95 36t112 13q77 0 149 -27t126 -81t87 -135t33 -187q0 -136 -52 -237q-52 -102 -143 -167 q-90 -65 -214 -98q-123 -33 -265 -33q-70 0 -134 7q-69 8 -135 21q-64 13 -125 35q-55 20 -101 50zM557 279h70q50 0 88 16q39 16 64 43q27 28 39 60q13 33 13 69q0 47 -23 76q-24 30 -83 30q-72 0 -120 -51t-48 -155v-88z" />
<glyph unicode="&#x432;" horiz-adv-x="1351" d="M119 80v868q0 141 46 242q47 103 126 170q78 66 189 101q108 34 239 34q232 0 363 -100q132 -101 132 -281q0 -63 -14 -106q-16 -49 -36 -82q-21 -35 -47 -59q-22 -21 -48 -38v-20q97 -40 158 -130q59 -87 59 -218q0 -115 -49 -206q-50 -93 -136 -155q-88 -64 -209 -98 q-123 -35 -265 -35q-67 0 -147 8q-62 6 -142 24q-69 15 -125 36t-94 45zM561 285h33q116 0 175 51q58 51 58 137q0 82 -45 112q-43 29 -98 29q-35 0 -68 -9q-32 -9 -55 -21v-299zM561 860q45 7 93 25q42 16 78 41q31 22 54 59q21 35 21 80q0 57 -31 85t-78 28q-56 0 -96 -45 q-41 -46 -41 -160v-113z" />
<glyph unicode="&#x433;" horiz-adv-x="1241" d="M86 272q0 80 32 138q31 55 79 96q44 37 104 62q46 20 111 38l264 70q26 7 33 16q8 11 8 21q0 26 -41 26h-174v-71h-369v286q52 20 109 34q60 15 131 27q64 11 142 16q80 5 144 5q266 0 388 -80q120 -79 120 -233q0 -80 -28 -135q-27 -52 -76 -92q-46 -37 -106 -60 q-61 -23 -119 -39l-265 -69q-11 -3 -25 -12q-11 -7 -11 -23q0 -17 13 -23q14 -6 28 -6h196v72h369v-287q-95 -39 -234 -60q-146 -22 -293 -22q-114 0 -212 15q-99 15 -167 50q-71 36 -111 94t-40 146z" />
<glyph unicode="&#x434;" horiz-adv-x="1351" d="M66 485q0 133 49 235q50 105 136 173t208 106q120 37 264 37q66 0 133 -7q81 -8 140 -20q63 -12 131 -35q60 -20 106 -50v-674q0 -202 -51 -343q-50 -139 -143 -229q-91 -88 -218 -127q-124 -38 -276 -38q-121 0 -193 17q-78 18 -127 40v326q52 -27 121 -42 q72 -16 133 -16q58 0 112 15q57 16 96 48q44 36 67 89q24 56 24 135v53h-20q-29 -58 -103 -98q-72 -39 -176 -39q-80 0 -158 28q-75 27 -132 84q-55 55 -90 139q-33 79 -33 193zM522 526q0 -45 25 -87q24 -40 84 -40q71 0 117 60q47 61 47 151v105h-68q-89 0 -147 -55 t-58 -134z" />
<glyph unicode="&#x435;" horiz-adv-x="1228" d="M66 524q0 120 35 212q37 97 108 162q72 66 180 102t254 36q119 0 210 -23q97 -25 165 -75q70 -52 107 -132q38 -82 38 -194q0 -67 -11 -110q-14 -55 -30 -101h-587q17 -48 91 -86q69 -36 214 -36q141 0 233 38v-292q-49 -19 -141 -38q-97 -20 -217 -20q-141 0 -263 35 q-120 34 -206 104t-133 175q-47 106 -47 243zM485 616h279q0 74 -41 109t-98 35t-98 -34q-42 -34 -42 -110z" />
<glyph unicode="&#x436;" horiz-adv-x="2002" d="M49 0v279h17q44 0 77 18q32 17 66 70l106 163l-184 195h-72v279h619v-279h-82v-20l149 -162h21v641h-123v278h594v-919h20l150 162v20h-82v279h619v-279h-72l-184 -195l106 -163q34 -53 66 -70q33 -18 77 -18h17v-279q-49 -13 -95 -17q-64 -6 -96 -6q-80 0 -142 14 t-107 40q-46 27 -81 66q-36 41 -69 93l-107 168h-20v-358h-471v358h-21l-106 -168q-31 -47 -70 -93q-32 -38 -81 -66q-45 -26 -106 -40q-62 -14 -142 -14q-32 0 -96 6q-46 4 -95 17z" />
<glyph unicode="&#x437;" horiz-adv-x="1171" d="M66 -104q121 -58 280 -58q147 0 215 46q70 47 70 118q0 58 -42 95q-43 38 -134 38q-23 0 -75 -5q-43 -4 -93 -17v290l174 35q85 16 131 58q45 40 45 110q0 69 -42 99t-114 30h-59v-139h-356v354q98 39 218 62q125 24 259 24q251 0 392 -93q140 -92 140 -271 q0 -60 -15 -108q-14 -45 -40 -87q-23 -37 -57 -68q-36 -33 -68 -55v-20q35 -23 67 -50q33 -29 61 -72q27 -43 45 -97q17 -52 17 -127q0 -114 -48 -203q-49 -90 -136 -149q-90 -61 -209 -92q-120 -31 -268 -31q-126 0 -220 18t-138 39v326z" />
<glyph unicode="&#x438;" d="M47 725v279h563v-555q0 -49 23 -80t63 -31t64 32q24 31 24 103v252h-82v279h553v-621q0 -49 20 -77q20 -27 73 -27v-279q-75 -23 -164 -23q-132 0 -201 52q-67 51 -96 129h-21q-44 -81 -128 -136t-206 -55q-89 0 -162 32q-74 33 -124 88q-53 59 -79 133q-28 79 -28 169 v336h-92z" />
<glyph unicode="&#x439;" d="M47 725v279h563v-555q0 -49 23 -80t63 -31t64 32q24 31 24 103v252h-82v279h553v-621q0 -49 20 -77q20 -27 73 -27v-279q-75 -23 -164 -23q-132 0 -201 52q-67 51 -96 129h-21q-44 -81 -128 -136t-206 -55q-89 0 -162 32q-74 33 -124 88q-53 59 -79 133q-28 79 -28 169 v336h-92zM231 1571l277 51q5 -79 41 -123q37 -45 108 -45q67 0 108 45q39 44 44 123l276 -51q-2 -93 -34 -167q-33 -74 -90 -127q-56 -52 -136 -81q-79 -29 -170 -29t-170 29q-77 28 -133 81t-87 127q-33 77 -34 167z" />
<glyph unicode="&#x43a;" horiz-adv-x="1409" d="M49 1184v278h594v-919h21l149 162v20h-82v279h619v-279h-72l-180 -197l102 -161q34 -53 66 -70q33 -18 77 -18h17v-279q-40 -9 -94 -16t-107 -7q-154 0 -243 53q-90 53 -152 160l-100 168h-21v-358h-584v279h113v905h-123z" />
<glyph unicode="&#x43b;" horiz-adv-x="1366" d="M31 0v279h102l172 446h-123v279h797l254 -725h102v-279h-483l-162 494l-26 143h-21l-27 -143l-75 -215h112v-279h-622z" />
<glyph unicode="&#x43c;" horiz-adv-x="2052" d="M55 0v279h103v446h-103v279h840l111 -363l24 -147h19l24 147l113 363h819v-279h-102v-446h102v-279h-553v395l23 205h-21l-188 -600h-480l-190 600h-21l23 -205v-395h-543z" />
<glyph unicode="&#x43d;" horiz-adv-x="1413" d="M55 0v279h103v446h-103v279h563v-381h195v102h-92v279h553v-725h92v-279h-553v381h-195v-102h93v-279h-656z" />
<glyph unicode="&#x43e;" horiz-adv-x="1351" d="M66 514q0 131 46 229q46 99 128 164q84 67 193 98t243 31t243 -31t193 -98q82 -65 128 -164q46 -98 46 -229q0 -134 -46 -235q-47 -103 -128 -171q-83 -69 -193 -105q-111 -36 -243 -36t-243 36q-110 36 -193 105q-81 68 -128 171q-46 101 -46 235zM545 508q0 -44 5 -92 q5 -44 19 -76q15 -33 40 -52q26 -20 67 -20q38 0 64 20q25 19 40 52q16 35 20 76q5 48 5 92q0 42 -5 89q-4 42 -20 73q-15 31 -40 48q-24 17 -64 17q-43 0 -67 -17q-25 -17 -40 -48q-14 -28 -19 -73q-5 -47 -5 -89z" />
<glyph unicode="&#x43f;" horiz-adv-x="1392" d="M55 0v279h99v446h-93v279h525v-82l-54 -164h31q16 37 49 89q28 45 78 90q47 43 113 71q65 28 155 28q143 0 220 -80q75 -78 75 -231v-446h93v-279h-564v567q0 53 -18 76t-47 23q-39 0 -66 -39q-26 -38 -26 -113v-235h69v-279h-639z" />
<glyph unicode="&#x440;" d="M47 -180h113v905h-113v279h565v-82l-53 -164h31q11 28 38 72q26 43 70 81t109 66q63 27 149 27q178 0 276 -122q97 -121 97 -325q0 -146 -50 -258q-49 -109 -136 -184q-85 -73 -202 -111q-114 -37 -249 -37h-61v-147h153v-279h-737v279zM598 279h70q90 0 146 59t56 145 q0 52 -23 91q-24 40 -83 40q-70 0 -118 -60t-48 -151v-124z" />
<glyph unicode="&#x441;" horiz-adv-x="1167" d="M66 516q0 130 48 229t133 163q88 66 200 97q114 31 251 31q128 0 224 -23q100 -24 180 -63v-375h-357v150h-40q-83 0 -126 -46q-44 -47 -44 -138q0 -77 28 -124q29 -49 74 -76q46 -28 100 -38q53 -10 107 -10q84 0 151 18q68 18 107 39v-325q-49 -22 -152 -40 q-101 -18 -217 -18q-157 0 -281 39t-210 111q-87 73 -131 173q-45 102 -45 226z" />
<glyph unicode="&#x442;" horiz-adv-x="1996" d="M55 0v279h103v446h-103v279h525v-82l-43 -164h30q14 37 44 92q26 49 71 90q47 44 104 69q62 27 144 27q117 0 184 -52t82 -118h31q35 75 112 122q78 48 199 48q84 0 142 -23q62 -25 100 -66q39 -42 58 -98q20 -58 20 -124v-446h92v-279h-564v592q0 34 -18 54t-49 20 q-41 0 -64 -31q-22 -29 -22 -80v-276h72v-279h-523v592q0 74 -65 74q-40 0 -65 -31q-23 -29 -23 -80v-276h71v-279h-645z" />
<glyph unicode="&#x443;" horiz-adv-x="1374" d="M47 725v279h563v-512q0 -49 23 -80t63 -31t64 30t24 89v225h-82v279h553v-781q0 -174 -50 -309q-49 -132 -142 -222q-92 -89 -219 -134q-128 -45 -281 -45q-111 0 -195 17q-93 19 -141 40v326q55 -28 132 -43q75 -15 135 -15q145 0 226 78t81 217h-21q-39 -65 -99 -94 q-61 -29 -144 -29q-93 0 -168 32q-74 32 -125 87q-51 56 -78 133q-27 78 -27 170v293h-92z" />
<glyph unicode="&#x444;" horiz-adv-x="1863" d="M66 440q0 134 46 238q46 105 129 177q86 75 196 111q116 38 249 38h10v180h-133v278h604v-426l-61 -184h31q8 28 31 54q26 30 61 49q40 22 85 35q50 14 105 14q83 0 154 -31q70 -30 120 -88t77 -137q28 -82 28 -181q0 -129 -47 -235q-45 -103 -130 -178 q-82 -73 -197 -114q-113 -40 -246 -40h-11v-180h133v-279h-737v279h133v147l62 183h-31q-18 -60 -94 -105q-77 -45 -187 -45q-84 0 -156 32q-71 32 -121 89q-50 58 -77 138q-26 78 -26 181zM510 485q0 -129 92 -129q54 0 79 37q26 38 26 90v207h-21q-76 0 -126 -53t-50 -152 zM1157 313h21q75 0 126 54q50 53 50 151q0 129 -92 129q-54 0 -79 -37q-26 -38 -26 -90v-207z" />
<glyph unicode="&#x445;" horiz-adv-x="1355" d="M49 0v279h82l225 227l-215 219h-82v279h428l240 -259h21v259h548v-279h-82l-217 -219l115 -123q41 -44 89 -74t106 -30v-279q-40 -13 -90 -17q-70 -6 -99 -6q-119 0 -209 35q-85 33 -170 121l-121 125h-20v-258h-549z" />
<glyph unicode="&#x446;" horiz-adv-x="1495" d="M47 725v279h563v-555q0 -49 23 -80t63 -31t64 32q24 31 24 103v252h-82v279h553v-603q0 -53 27 -88q27 -34 86 -34h88v-537h-356v235q-33 6 -66 24q-32 17 -61 42q-30 25 -50 54q-23 33 -30 61h-21q-44 -81 -131 -136t-209 -55q-89 0 -162 32q-74 33 -124 88 q-53 59 -79 133q-28 79 -28 169v336h-92z" />
<glyph unicode="&#x447;" horiz-adv-x="1378" d="M31 725v279h563v-279q0 -45 18 -78t64 -33q32 0 68 22q34 21 34 69v40h-92v259h553v-725h92v-279h-655v258h102v186h-20q-28 -82 -110 -132t-197 -50q-161 0 -244 98q-84 99 -84 273v92h-92z" />
<glyph unicode="&#x448;" horiz-adv-x="1978" d="M47 725v279h563v-592q0 -34 19 -55q18 -19 49 -19q40 0 63 31t23 80v276h-72v279h522v-592q0 -74 66 -74q40 0 65 31q23 29 23 80v276h-72v279h543v-621q0 -49 20 -77q19 -27 72 -27v-279q-75 -23 -164 -23q-131 0 -200 52t-97 129h-20q-39 -75 -124 -134 q-82 -57 -204 -57q-59 0 -113 17t-90 43q-43 31 -63 60q-26 37 -31 71h-20q-35 -87 -126 -139t-206 -52q-98 0 -162 38q-63 37 -102 99q-39 61 -54 137q-16 80 -16 148v336h-92z" />
<glyph unicode="&#x449;" horiz-adv-x="2078" d="M47 725v279h563v-592q0 -34 19 -55q18 -19 49 -19q40 0 63 31t23 80v276h-72v279h522v-592q0 -74 66 -74q40 0 65 31q23 29 23 80v276h-72v279h543v-603q0 -53 27 -88q27 -34 86 -34h88v-537h-357v235q-31 6 -65 24q-34 19 -62 42q-30 25 -50 54q-21 31 -29 61h-21 q-44 -83 -125 -136q-84 -55 -203 -55q-61 0 -115 17t-90 43q-41 29 -62 60q-24 35 -30 71h-20q-35 -86 -124 -139q-88 -52 -204 -52q-97 0 -164 38q-64 36 -105 99q-38 58 -57 137q-18 75 -18 148v336h-92z" />
<glyph unicode="&#x44a;" horiz-adv-x="1550" d="M18 575v429h807v-230l-77 -199h30q25 34 53 58q34 29 79 51q44 21 104 37q53 14 125 14q73 0 136 -18q59 -17 109 -57q47 -38 74 -96t27 -140q0 -116 -52 -201q-53 -86 -143 -143q-92 -59 -210 -85q-124 -28 -255 -28q-141 0 -255 27q-116 28 -197 65v516l63 199h-61 l-64 -199h-293zM805 254h41q85 0 133 28q47 27 47 74q0 33 -24 48q-26 16 -60 16q-65 0 -101 -43t-36 -103v-20z" />
<glyph unicode="&#x44b;" horiz-adv-x="2064" d="M55 725v279h574v-209l-78 -213h31q39 61 117 106q80 47 210 47q71 0 131 -18q57 -17 103 -57q41 -35 66 -96q24 -58 24 -140q0 -115 -47 -201q-46 -85 -130 -143t-197 -85q-118 -28 -245 -28q-140 0 -258 27q-122 28 -198 65v666h-103zM582 254h30q81 0 126 28 q44 27 44 74q0 33 -19 48q-21 16 -54 16q-60 0 -94 -43q-33 -42 -33 -103v-20zM1352 0v279h102v446h-102v279h573v-725h92v-279h-665z" />
<glyph unicode="&#x44c;" horiz-adv-x="1366" d="M55 725v279h574v-209l-78 -213h31q40 59 138 106q99 47 232 47q74 0 139 -18q60 -17 110 -57q46 -37 73 -96q26 -56 26 -140q0 -116 -52 -201q-53 -87 -142 -143q-92 -59 -210 -85q-124 -28 -255 -28q-141 0 -270 27q-133 28 -213 65v666h-103zM608 254h51q85 0 135 28 q48 27 48 72q0 35 -26 50q-27 16 -60 16q-68 0 -108 -43t-40 -103v-20z" />
<glyph unicode="&#x44d;" horiz-adv-x="1167" d="M66 25v292q73 -30 153 -45q77 -14 158 -14q49 0 97 6q46 6 87 23q38 16 66 44t35 70h-322v201h321q-17 88 -65 127q-50 41 -154 41h-20v-94h-356v301q82 29 192 44q112 15 219 15q305 0 465 -134t160 -388q0 -158 -60 -263q-62 -108 -155 -169q-97 -64 -216 -89 q-122 -26 -243 -26q-118 0 -212 18q-97 18 -150 40z" />
<glyph unicode="&#x44e;" horiz-adv-x="2002" d="M35 1184v278h583v-839h152q16 109 67 191q48 78 126 128q77 50 171 72q92 22 203 22q133 0 242 -31t190 -98q82 -68 124 -164q44 -100 44 -229q0 -132 -44 -235q-43 -101 -124 -171q-80 -69 -190 -105q-111 -36 -242 -36q-103 0 -198 24q-93 24 -168 74q-74 50 -125 129 q-51 80 -72 187h-156v-102h93v-279h-666v279h113v905h-123zM1204 508q0 -41 6 -82t21 -74q15 -32 40 -53q24 -20 66 -20q43 0 67 20q26 22 39 53q13 33 18 74q5 45 5 82q0 35 -5 78q-5 39 -18 69q-15 32 -39 51q-25 19 -67 19q-41 0 -66 -19q-23 -18 -40 -51 q-15 -30 -21 -69t-6 -78z" />
<glyph unicode="&#x44f;" horiz-adv-x="1341" d="M55 0v279h25q44 0 79 9q36 9 58 23q27 17 42 32q19 19 28 32v12q-78 33 -132 105q-55 73 -55 176q0 79 38 147q37 67 113 117q77 51 185 77q111 27 258 27q149 0 269 -26q128 -28 239 -76v-655h92v-279h-542v279h-41q-81 -149 -201 -225q-122 -77 -285 -77q-40 0 -92 7 q-48 6 -78 16zM551 659q0 -46 32 -76q31 -30 97 -30h72v209h-72q-65 0 -97 -29t-32 -74z" />
<glyph unicode="&#x450;" horiz-adv-x="1228" d="M66 524q0 120 35 212q37 97 108 162q72 66 180 102t254 36q119 0 210 -23q97 -25 165 -75q70 -52 107 -132q38 -82 38 -194q0 -67 -11 -110q-14 -55 -30 -101h-587q17 -48 91 -86q69 -36 214 -36q141 0 233 38v-292q-49 -19 -141 -38q-97 -20 -217 -20q-141 0 -263 35 q-120 34 -206 104t-133 175q-47 106 -47 243zM229 1587q0 75 51 126q50 50 136 50q44 0 82 -17q40 -18 69 -65l215 -360l-176 -156l-295 262q-45 40 -63 80q-19 41 -19 80zM485 616h279q0 74 -41 109t-98 35t-98 -34q-42 -34 -42 -110z" />
<glyph unicode="&#x451;" horiz-adv-x="1228" d="M66 524q0 120 35 212q37 97 108 162q72 66 180 102t254 36q119 0 210 -23q97 -25 165 -75q70 -52 107 -132q38 -82 38 -194q0 -67 -11 -110q-14 -55 -30 -101h-587q17 -48 91 -86q69 -36 214 -36q141 0 233 38v-292q-49 -19 -141 -38q-97 -20 -217 -20q-141 0 -263 35 q-120 34 -206 104t-133 175q-47 106 -47 243zM154 1358q0 86 55 142t147 56q93 0 148 -56t55 -142t-55 -141q-56 -56 -148 -56q-91 0 -147 56q-55 55 -55 141zM485 616h279q0 74 -41 109t-98 35t-98 -34q-42 -34 -42 -110zM670 1356q0 86 55 142t147 56q93 0 148 -56 t55 -142q0 -87 -55 -142t-148 -55q-92 0 -147 55t-55 142z" />
<glyph unicode="&#x452;" horiz-adv-x="1423" d="M66 1071v279h129v145h471v-145h131v-279h-131v-108l-93 -238h31q24 48 56 94q35 51 82 90q48 41 115 68q66 27 153 27q149 0 225 -82t76 -230v-483q0 -117 -32 -239q-32 -121 -108 -215q-77 -95 -198 -154q-123 -60 -307 -60v279q99 29 137 117q37 84 37 217v413 q0 52 -19 76q-18 23 -49 23q-43 0 -75 -38q-31 -37 -31 -114v-514h-574v279h103v792h-129z" />
<glyph unicode="&#x453;" horiz-adv-x="1241" d="M86 272q0 80 32 138q31 55 79 96q44 37 104 62q46 20 111 38l264 70q26 7 33 16q8 11 8 21q0 26 -41 26h-174v-71h-369v286q52 20 109 34q60 15 131 27q64 11 142 16q80 5 144 5q266 0 388 -80q120 -79 120 -233q0 -80 -28 -135q-27 -52 -76 -92q-46 -37 -106 -60 q-61 -23 -119 -39l-265 -69q-11 -3 -25 -12q-11 -7 -11 -23q0 -17 13 -23q14 -6 28 -6h196v72h369v-287q-95 -39 -234 -60q-146 -22 -293 -22q-114 0 -212 15q-99 15 -167 50q-71 36 -111 94t-40 146zM502 1321l217 358q29 49 71 67q38 17 80 17q86 0 136 -50 q49 -49 49 -124q0 -33 -16 -79q-15 -44 -62 -85l-299 -260z" />
<glyph unicode="&#x454;" horiz-adv-x="1167" d="M66 514q0 254 159 388q160 134 465 134q106 0 219 -15q112 -15 193 -44v-301h-357v94h-20q-104 0 -154 -41q-48 -39 -65 -127h321v-201h-321q7 -42 35 -70q29 -29 65 -44q41 -17 87 -23q48 -6 98 -6q80 0 157 14q82 15 154 45v-292q-52 -21 -151 -40q-94 -18 -212 -18 q-120 0 -242 26q-119 25 -216 89q-95 62 -156 169q-59 103 -59 263z" />
<glyph unicode="&#x455;" horiz-adv-x="1200" d="M82 713q0 87 42 149q42 61 115 101q69 37 173 56q95 17 217 17q130 0 244 -15q111 -15 206 -38v-274h-356v61h-145q-41 0 -41 -29q0 -21 41 -36l276 -93q138 -46 208 -113q73 -70 73 -196q0 -89 -38 -153q-38 -63 -110 -104q-69 -39 -174 -59t-229 -20q-63 0 -141 5 q-29 2 -136 14q-60 7 -121 20q-54 12 -94 27v276h357v-76h180q21 0 30 9t9 18q0 27 -39 39l-281 92q-49 17 -101 46q-46 26 -85 68t-59 91q-21 51 -21 117z" />
<glyph unicode="&#x456;" horiz-adv-x="800" d="M49 0v279h119v446h-119v279h590v-725h123v-279h-713zM129 1358q0 88 61 142q62 54 195 54q137 0 199 -55q63 -55 63 -141t-63 -139q-65 -54 -199 -54q-133 0 -195 53q-61 52 -61 140z" />
<glyph unicode="&#x457;" horiz-adv-x="800" d="M-61 1358q0 86 55 142t147 56q93 0 148 -56t55 -142t-55 -141q-56 -56 -148 -56q-91 0 -147 56q-55 55 -55 141zM49 0v279h119v446h-119v279h590v-725h123v-279h-713zM455 1356q0 86 55 142t147 56q93 0 148 -56t55 -142q0 -87 -55 -142t-148 -55q-92 0 -147 55t-55 142z " />
<glyph unicode="&#x458;" horiz-adv-x="768" d="M20 -180q97 29 131 102q33 70 33 201v602h-112v279h583v-857q0 -126 -35 -231q-36 -108 -113 -191q-78 -84 -197 -133q-120 -49 -290 -51v279zM156 1358q0 88 61 142t195 54q136 0 198 -55q64 -56 64 -141q0 -86 -64 -139q-65 -54 -198 -54t-195 53q-61 52 -61 140z" />
<glyph unicode="&#x459;" horiz-adv-x="2039" d="M31 0v279h92l280 446h-122v279h1052v-177l-78 -213h31q39 61 126 107q88 47 218 47q72 0 135 -18q61 -17 110 -57q46 -37 73 -96q26 -56 26 -140q0 -117 -59 -201q-61 -87 -157 -143q-100 -59 -223 -85q-131 -28 -257 -28h-416v662h-31l-225 -383h133v-279h-708z M1313 287h51q84 0 132 27t48 75q0 64 -78 64q-66 0 -109 -43q-44 -44 -44 -103v-20z" />
<glyph unicode="&#x45a;" horiz-adv-x="1990" d="M55 0v279h103v446h-103v279h563v-381h195v102h-92v279h563v-177l-78 -213h31q39 61 126 107q88 47 218 47q72 0 135 -18q61 -17 110 -57q44 -36 72 -96q27 -58 27 -140q0 -117 -59 -201q-61 -87 -157 -143q-100 -59 -223 -85q-131 -28 -257 -28h-416v381h-195v-102h93 v-279h-656zM1264 287h51q84 0 132 27t48 75q0 64 -78 64q-66 0 -109 -43q-44 -44 -44 -103v-20z" />
<glyph unicode="&#x45b;" horiz-adv-x="1449" d="M66 1071v279h129v147h471v-147h131v-279h-131v-108l-93 -238h31q24 48 56 94q35 51 82 90q48 41 115 68q66 27 153 27q149 0 225 -82t76 -230v-413h92v-279h-563v539q0 32 -16 64q-15 30 -54 30q-42 0 -73 -39q-31 -38 -31 -113v-202h82v-279h-656v279h103v792h-129z" />
<glyph unicode="&#x45c;" horiz-adv-x="1386" d="M39 1184v278h594v-919h20l150 162v20h-82v279h618v-279h-71l-181 -197l103 -161q35 -53 65 -70q33 -18 78 -18h17v-279q-39 -9 -95 -16q-54 -7 -106 -7q-154 0 -243 53q-90 53 -152 160l-101 168h-20v-358h-584v279h113v905h-123zM758 1321l217 358q29 49 71 67 q38 17 80 17q86 0 136 -50q49 -49 49 -124q0 -33 -16 -79q-15 -44 -62 -85l-299 -260z" />
<glyph unicode="&#x45d;" d="M47 725v279h563v-555q0 -49 23 -80t63 -31t64 32q24 31 24 103v252h-82v279h553v-621q0 -49 20 -77q20 -27 73 -27v-279q-75 -23 -164 -23q-132 0 -201 52q-67 51 -96 129h-21q-44 -81 -128 -136t-206 -55q-89 0 -162 32q-74 33 -124 88q-53 59 -79 133q-28 79 -28 169 v336h-92zM264 1587q0 76 50 126t137 50q43 0 81 -17q41 -18 70 -65l215 -360l-176 -156l-295 262q-45 40 -63 80q-19 41 -19 80z" />
<glyph unicode="&#x45e;" horiz-adv-x="1374" d="M47 725v279h563v-512q0 -49 23 -80t63 -31t64 30t24 89v225h-82v279h553v-781q0 -174 -50 -309q-49 -132 -142 -222q-92 -89 -219 -134q-128 -45 -281 -45q-111 0 -195 17q-93 19 -141 40v326q55 -28 132 -43q75 -15 135 -15q145 0 226 78t81 217h-21q-39 -65 -99 -94 q-61 -29 -144 -29q-93 0 -168 32q-74 32 -125 87q-51 56 -78 133q-27 78 -27 170v293h-92zM260 1571l277 51q5 -79 41 -123q38 -45 108 -45q68 0 108 45q39 44 44 123l276 -51q-1 -91 -35 -167q-33 -74 -90 -127t-135 -81q-79 -29 -170 -29t-170 29q-77 28 -133 81t-87 127 q-33 77 -34 167z" />
<glyph unicode="&#x45f;" d="M47 725v279h563v-555q0 -49 23 -80t63 -31t64 32q24 31 24 103v252h-82v279h553v-621q0 -49 20 -77q20 -27 73 -27v-279q-75 -23 -164 -23q-132 0 -201 52q-67 51 -96 129h-31l-108 -238q35 -5 61 -17q31 -14 55 -38q25 -25 40 -61q16 -38 16 -80q0 -52 -22 -94 q-20 -39 -58 -65t-86 -39t-107 -13q-41 0 -82 6q-44 7 -71 20v129h65q42 0 69 22q25 21 25 56q0 24 -12 38q-11 13 -30 19q-24 8 -38 9q-28 2 -38 2v153q-89 0 -164 32t-125 88q-53 59 -79 133q-28 79 -28 169v336h-92z" />
<glyph unicode="&#x490;" horiz-adv-x="1390" d="M61 0v307h103v764h-103v309h865v193h387v-502h-629v-764h164v-307h-787z" />
<glyph unicode="&#x491;" horiz-adv-x="1146" d="M55 0v279h99v446h-93v279h674v192h357v-471h-467v-446h102v-279h-672z" />
<glyph unicode="&#x2000;" horiz-adv-x="1062" />
<glyph unicode="&#x2001;" horiz-adv-x="2124" />
<glyph unicode="&#x2002;" horiz-adv-x="1062" />
<glyph unicode="&#x2003;" horiz-adv-x="2124" />
<glyph unicode="&#x2004;" horiz-adv-x="708" />
<glyph unicode="&#x2005;" horiz-adv-x="531" />
<glyph unicode="&#x2006;" horiz-adv-x="354" />
<glyph unicode="&#x2007;" horiz-adv-x="354" />
<glyph unicode="&#x2008;" horiz-adv-x="265" />
<glyph unicode="&#x2009;" horiz-adv-x="424" />
<glyph unicode="&#x200a;" horiz-adv-x="118" />
<glyph unicode="&#x2010;" horiz-adv-x="856" d="M102 414v311h652v-311h-652z" />
<glyph unicode="&#x2011;" horiz-adv-x="856" d="M102 414v311h652v-311h-652z" />
<glyph unicode="&#x2012;" horiz-adv-x="856" d="M102 414v311h652v-311h-652z" />
<glyph unicode="&#x2013;" horiz-adv-x="1361" d="M131 414v311h1100v-311h-1100z" />
<glyph unicode="&#x2014;" horiz-adv-x="1957" d="M141 414v311h1676v-311h-1676z" />
<glyph unicode="&#x2018;" horiz-adv-x="503" d="M115 1114q0 66 28 128t69 115q39 51 84 88q38 32 75 50l67 -78q-31 -34 -65 -80q-29 -40 -29 -84q0 -35 14 -55q17 -24 29 -37q18 -18 32 -43q15 -27 15 -63q0 -47 -36 -87t-111 -40q-46 0 -78 16t-53 43q-20 26 -31 60q-10 31 -10 67z" />
<glyph unicode="&#x2019;" horiz-adv-x="503" d="M90 1006q39 42 66 79q28 38 28 84q0 36 -14 56q-17 24 -29 37q-16 16 -31 43q-16 29 -16 63q0 46 36 87q36 40 112 40q45 0 77 -16q34 -17 54 -43q19 -24 30 -61q11 -36 11 -66q0 -64 -29 -128q-28 -62 -69 -115q-39 -51 -84 -88q-40 -33 -74 -50z" />
<glyph unicode="&#x201a;" horiz-adv-x="503" d="M90 -233q39 42 66 79q28 38 28 84q0 36 -14 56q-17 24 -29 37q-16 16 -31 43q-16 29 -16 63q0 47 36 87t112 40q45 0 77 -16q34 -17 54 -43q19 -24 30 -61q11 -36 11 -66q0 -64 -29 -128q-28 -62 -69 -115q-39 -51 -84 -88q-40 -33 -74 -50z" />
<glyph unicode="&#x201c;" horiz-adv-x="929" d="M115 1114q0 66 28 128t69 115q39 51 84 88q38 32 75 50l67 -78q-31 -34 -65 -80q-29 -40 -29 -84q0 -35 14 -55q17 -24 29 -37q18 -18 32 -43q15 -27 15 -63q0 -47 -36 -87t-111 -40q-46 0 -78 16t-53 43q-20 26 -31 60q-10 31 -10 67zM541 1114q0 66 28 128t69 115 q39 51 84 88q38 32 75 50l67 -78q-31 -34 -65 -80q-29 -40 -29 -84q0 -35 14 -55q17 -24 29 -37q18 -18 32 -43q15 -27 15 -63q0 -47 -36 -87t-111 -40q-46 0 -78 16t-53 43q-20 26 -31 60q-10 31 -10 67z" />
<glyph unicode="&#x201d;" horiz-adv-x="929" d="M90 1006q39 42 66 79q28 38 28 84q0 36 -14 56q-17 24 -29 37q-16 16 -31 43q-16 29 -16 63q0 46 36 87q36 40 112 40q45 0 77 -16q34 -17 54 -43q19 -24 30 -61q11 -36 11 -66q0 -64 -29 -128q-28 -62 -69 -115q-39 -51 -84 -88q-40 -33 -74 -50zM516 1006q39 42 66 79 q28 38 28 84q0 36 -14 56q-17 24 -29 37q-16 16 -31 43q-16 29 -16 63q0 46 36 87q36 40 112 40q45 0 77 -16q34 -17 54 -43q19 -24 30 -61q11 -36 11 -66q0 -64 -29 -128q-28 -62 -69 -115q-39 -51 -84 -88q-40 -33 -74 -50z" />
<glyph unicode="&#x201e;" horiz-adv-x="929" d="M90 -233q39 42 66 79q28 38 28 84q0 36 -14 56q-17 24 -29 37q-16 16 -31 43q-16 29 -16 63q0 47 36 87t112 40q45 0 77 -16q34 -17 54 -43q19 -24 30 -61q11 -36 11 -66q0 -64 -29 -128q-28 -62 -69 -115q-39 -51 -84 -88q-40 -33 -74 -50zM516 -233q39 42 66 79 q28 38 28 84q0 36 -14 56q-17 24 -29 37q-16 16 -31 43q-16 29 -16 63q0 47 36 87t112 40q45 0 77 -16q34 -17 54 -43q19 -24 30 -61q11 -36 11 -66q0 -64 -29 -128q-28 -62 -69 -115q-39 -51 -84 -88q-40 -33 -74 -50z" />
<glyph unicode="&#x2026;" horiz-adv-x="1832" d="M102 164q0 84 56 142q55 56 147 56q93 0 148 -56t55 -142t-55 -141q-56 -56 -148 -56q-91 0 -147 56t-56 141zM711 164q0 86 55 142t147 56q93 0 148 -56t55 -142t-55 -141q-56 -56 -148 -56q-91 0 -147 56q-55 55 -55 141zM1317 164q0 86 55 142t148 56q92 0 147 -56 t55 -142t-55 -141q-56 -56 -147 -56q-92 0 -148 56q-55 55 -55 141z" />
<glyph unicode="&#x202f;" horiz-adv-x="424" />
<glyph unicode="&#x2039;" horiz-adv-x="753" d="M131 416v176l354 381l220 -195l-252 -278l247 -275l-219 -194z" />
<glyph unicode="&#x203a;" horiz-adv-x="753" d="M49 778l219 195l355 -381v-176l-353 -385l-219 194l250 275z" />
<glyph unicode="&#x205f;" horiz-adv-x="531" />
<glyph unicode="&#x20ac;" horiz-adv-x="1423" d="M61 371l72 237h72v103h-144l72 237h105q67 223 240 343q176 122 456 122q125 0 228 -22q106 -23 192 -62v-293h-367v97h-61q-86 0 -160 -47q-75 -47 -121 -138h678l-72 -237h-657v-103h627l-72 -237h-434q60 -60 144 -91q87 -32 196 -32q70 0 147 13q78 13 152 44v-258 q-44 -22 -146 -51t-260 -29q-112 0 -217 21t-194 67q-90 47 -163 124q-72 76 -122 192h-191z" />
<glyph unicode="&#x2122;" horiz-adv-x="2088" d="M37 1114v266h754v-266h-173v98h-77v-358h88v-168h-426v168h84v358h-78v-98h-172zM856 686v168h78v358h-78v168h522l74 -342h16l70 342h514v-168h-74v-358h74v-168h-328v291l19 203l-17 4l-114 -498h-316l-114 490l-17 -5l19 -194v-291h-328z" />
<glyph unicode="&#x25fc;" horiz-adv-x="1003" d="M0 0v1004h1004v-1004h-1004z" />
</font>
</defs>
</svg>
